<svg height="300" viewBox="0 0 230 230" width="300" xmlns="http://www.w3.org/2000/svg"><path d="m0 0c.166 1.637.23 3.115.002 4.77-.221 1.609-.516 4.947.8 7.58 1.588 3.176 2.647 3.598 4.024 4.657 1.101.818 3.492 2.524 5.185 4.764 1.534 2.021 2.024 4.288 2.096 5.102-.06 1.952-.226 3.98-.303 6.012-.044 1.143.43 5.228.526 5.864-2.731.351-5.43 1.684-6.922 4.034-.441.356-1.027 1.3-1.252 1.747 0-.009-.367-.496-.59-1.143.317-.572 1.078-.54 1.143-1.209-.541-.03-1.112.318-1.684.446-3.017-5.112-5.652-10.224-8.447-15.465 1.207-.414 2.318-.984 3.494-1.429.031-.159.254-.252.158-.476-1.365-.159-2.73.698-4.191.762-2.381-5.589-5.082-11.113-6.924-16.83-.197-.739-.713-1.682-.816-2.144-.041-.119.695-.24 1.252-.678.025-.018-.09-.286-.219-.457-.059-.08-1.094.378-1.313.358-.324-.029-1.215-4.323-1.158-4.735 2.022.234 4.975 1.759 6.559-.338 1.369-1.814-.364-3.853.541-5.588.631-1.21 2.365-1.758 3.515-2.306 3.373-1.603 4.293 4.424 4.524 6.702" fill="#d39e6b" stroke="#d39e6b" transform="matrix(1.1146666388 0 0 -1.1146666388 64.85214772724 103.52929284934)"/><g fill="#231f20"><path d="m0 0c-.126.143-.334.262-.547.293.213-.031.421-.15.547-.293.81-1.238 1.87-2.138 3.018-2.859-.766.48-1.492 1.041-2.131 1.727-.318.344-.616.719-.887 1.132" transform="matrix(1.1146666388 0 0 -1.1146666388 105.17744271911 33.82361459198)"/><path d="m0 0c-.619-.121-1.113-.346-1.656-.612.543.266 1.037.491 1.656.612" transform="matrix(1.1146666388 0 0 -1.1146666388 89.99233909874 53.89318742358)"/><path d="m0 0c.735-.028 2.114-1.579 2.427-1.854-.312.275-1.691 1.826-2.427 1.854" transform="matrix(1.1146666388 0 0 -1.1146666388 120.86637566022 32.30097996338)"/><path d="m0 0c-2.369-.071-5.25-.359-7.781-.807-2.394-.425-4.474-1.06-5.506-1.458 1.033.398 3.113 1.033 5.506 1.458 2.531.448 5.412.736 7.781.807" transform="matrix(1.1146666388 0 0 -1.1146666388 98.80935221165 24.34448949563)"/><path d="m0 0c.57-.603 1.682-.635 2.223-1.461-.541.826-1.653.858-2.223 1.461" transform="matrix(1.1146666388 0 0 -1.1146666388 118.34722905653 26.17811611646)"/><path d="m0 0c-.206-.011-.435.043-.644.106.209-.063.438-.117.644-.106" transform="matrix(1.1146666388 0 0 -1.1146666388 104.95228005807 37.58561449793)"/><path d="m0 0c-.262.256-.527.526-.807.809 1.123-1.135 1.988-2.036 3.43-2.835 1.527-.845 3.139-1.346 4.816-1.659-1.677.313-3.289.814-4.816 1.659-1.081.599-1.838 1.256-2.623 2.026" transform="matrix(1.1146666388 0 0 -1.1146666388 113.57534117583 33.83476125837)"/><path d="m0 0c-1.875 1.176-3.621 2.636-5.717 3.113 2.096-.477 3.842-1.937 5.717-3.113" transform="matrix(1.1146666388 0 0 -1.1146666388 104.01150141493 37.39946516925)"/><path d="m0 0c1.588-.159 2.588-.484 3.779-2.229 0-.191.412-.851.412-1.043-3.303 1.271-6.383 1.969-10.066 1.431 1.492 1.649 3.588 2.253 5.875 1.841zm-8.86-11.813.522-2.403s1.943.516 4.346.719c-.969-.036-1.945-.164-3.186-.444-.25.838-.459 3.174-.998 5.427-.483 2.011-1.291 3.954-1.606 4.704 1.334.761 2.911.909 4.446.92 5.107.035 10.545-1.721 12.133-2.833.138-.096-.418-1.881-.477-2.064-.442-1.398-2.435-5.877-2.345-6.541.641-.153 1.054-.263 1.054-.263l.432 1.476h-.001c.514 1.545 1.178 3.039 1.68 4.588.256.791 1.164 2.934.504 3.653-.209.228-.73.488-1.033.651-.449.245-1.047.349-1.365.777-.36.482-.334 1.234-.596 1.777-.621 1.293-1.953 2.051-3.287 2.431-2.666.762-5.684.413-7.557-1.524-.486-.503-.693-.891-1.365-1.173-.445-.185-.908-.323-1.365-.474-.352-.117-2.295-.577-2.129-1.178.666-2.414 1.303-5.526 2.191-8.226-.121-.006-.267-.008-.439-.007.172-.001.32.001.441.007" transform="matrix(1.1146666388 0 0 -1.1146666388 112.50637586922 9.78917252618)"/><path d="m0 0c3.358 1.868 5.078 2.19 6.85 2.582.57.126 1.301.253 2.139.371-.838-.118-1.569-.245-2.141-.371-1.772-.392-3.492-.714-6.85-2.582-2.773-1.544-5.351-4.385-7.486-8.197 2.137 3.812 4.715 6.653 7.488 8.197" transform="matrix(1.1146666388 0 0 -1.1146666388 80.02164601467 26.84468676646)"/><path d="m0 0c-.357.114-.715.234-1.07.357.355-.123.712-.243 1.07-.357" transform="matrix(1.1146666388 0 0 -1.1146666388 129.30217278266 37.08401451047)"/><path d="m0 0c-.02 1.499-.122 2.958-.289 4.391.113-.977.194-1.967.24-2.973.022-.469.041-.94.047-1.418l-.332-3.052.002-.001z" transform="matrix(1.1146666388 0 0 -1.1146666388 88.61238179991 207.62354955365)"/><path d="m0 0c-.916-.006-1.775-.079-2.277-.082h.001c.501.003 1.361.076 2.276.082" transform="matrix(1.1146666388 0 0 -1.1146666388 141.84886046899 27.75759874363)"/><path d="m0 0c-1.127.029-2.266-.208-3.404-.332 1.138.124 2.277.361 3.404.332" transform="matrix(1.1146666388 0 0 -1.1146666388 141.92019913388 28.95029204715)"/><path d="m0 0c-.717-.006-1.447.042-2.16.107.713-.065 1.443-.113 2.16-.107" transform="matrix(1.1146666388 0 0 -1.1146666388 136.85738326045 38.1708144833)"/><path d="m0 0c-.275-.246-.58-.454-.891-.652.312.198.616.406.891.652.289.258.588.601.77.982-.183-.381-.483-.724-.77-.982" transform="matrix(1.1146666388 0 0 -1.1146666388 144.98776172385 31.49730531681)"/><path d="m0 0c-.512.009-1.02.051-1.514.129.494-.078 1.002-.12 1.514-.129" transform="matrix(1.1146666388 0 0 -1.1146666388 137.11821525393 32.95863328028)"/><path d="m0 0c1.054-.614 2.234-1.085 3.47-1.104.067-.021.155-.033.262-.039-.106.006-.195.018-.26.039-1.236.019-2.416.49-3.472 1.104" transform="matrix(1.1146666388 0 0 -1.1146666388 131.64297272414 216.86859465586)"/><path d="m0 0c.19-.032.409-.126.631-.25.567-.312 1.162-.811 1.405-.951-.241.14-.838.639-1.403.951-.224.124-.443.218-.633.25" transform="matrix(1.1146666388 0 0 -1.1146666388 129.37351144754 215.52988002266)"/><path d="m0 0c-.053-.9.178-1.947.18-2.343h.002c-.004.396-.233 1.443-.182 2.343" transform="matrix(1.1146666388 0 0 -1.1146666388 123.96180491617 215.71937335126)"/><path d="m0 0h-.001z" transform="matrix(1.1146666388 0 0 -1.1146666388 130.66429541527 209.49841884011)"/><path d="m0 0 .002.015-.004-.015c0-.331-.117-.955-.223-2.436l.053-1.218-.051 1.218c.106 1.481.223 2.105.223 2.436" transform="matrix(1.1146666388 0 0 -1.1146666388 124.15352757804 211.64638145308)"/><path d="m0 0c.122.73 2.391 5.897 2.539 6.478l-.003.001c-.145-.578-2.416-5.749-2.539-6.479l-.063-1.017c1.746-.38 3.844-1.132 5.621-1.481h.002c-1.777.349-3.874 1.101-5.621 1.481z" transform="matrix(1.1146666388 0 0 -1.1146666388 85.39210988041 218.24074928822)"/><path d="m0 0c-.319.246-.626.5-.912.748.286-.248.593-.502.912-.748" transform="matrix(1.1146666388 0 0 -1.1146666388 131.68087138986 210.33218948594)"/><path d="m0 0c.984 1.301 1.492 3.141 3.144 3.746.476.127.951.262 1.412.269-.461-.007-.937-.142-1.414-.269-1.652-.605-2.16-2.445-3.144-3.746-.254-.088-.505-.142-.753-.166.249.024.5.078.755.166" transform="matrix(1.1146666388 0 0 -1.1146666388 136.61104193327 211.72663745108)"/><path d="m0 0c.508.381 1.238.761 1.205 1.523l.383.889c.332.806 1.296 1.411 2.108 1.471-.812-.059-1.778-.664-2.112-1.471l-.381-.889c.031-.762-.699-1.142-1.207-1.523-.38-.143-.735-.249-1.142-.267.408.017.763.123 1.146.267" transform="matrix(1.1146666388 0 0 -1.1146666388 100.01207751491 214.41744271714)"/><path d="m0 0c-.001-.001-.002-.001-.002-.002.67-1.014 1.638-1.842 2.752-2.318.184-.078 1.566-.582 3.215-.584-1.648.002-3.029.506-3.211.584-1.115.476-2.086 1.305-2.754 2.32" transform="matrix(1.1146666388 0 0 -1.1146666388 93.03872302258 218.24074928822)"/><path d="m0 0c.14.594.198 1.224.218 1.788-.022-.564-.078-1.194-.218-1.788" transform="matrix(1.1146666388 0 0 -1.1146666388 126.84544751075 208.62340552866)"/><path d="m0 0c.13.001.279.025.369.01-.089.015-.239-.009-.369-.01" transform="matrix(1.1146666388 0 0 -1.1146666388 127.9790634824 209.31895751127)"/><path d="m0 0c-.119-.005-.233.058-.345.109.112-.051.226-.114.345-.109" transform="matrix(1.1146666388 0 0 -1.1146666388 126.31486619068 209.68122416888)"/><path d="m0 0c-.001-.002.002-.003 0-.006.164.593.318 1.191.459 1.794.679 2.923 1.049 5.969 1.041 9.027.008-3.057-.362-6.103-1.041-9.025-.142-.603-.294-1.199-.459-1.79" transform="matrix(1.1146666388 0 0 -1.1146666388 128.47063147012 209.42150684204)"/><path d="m0 0 .539-.985c.539-.761.668-1.244 1.303-2.604-.635 1.36-.762 1.842-1.301 2.604z" transform="matrix(1.1146666388 0 0 -1.1146666388 119.79741035361 192.25898460443)"/><path d="m0 0c-.039-.23-.086-.458-.128-.687.042.229.089.457.128.687" transform="matrix(1.1146666388 0 0 -1.1146666388 134.32040199054 199.23456843004)"/><path d="m0 0c-.035-.067-.072-.136-.108-.205.036.069.073.138.108.205" transform="matrix(1.1146666388 0 0 -1.1146666388 99.81143751993 206.00393892748)"/><path d="m0 0c-.045-.134-.091-.267-.14-.398.049.131.095.264.14.398" transform="matrix(1.1146666388 0 0 -1.1146666388 101.41544281316 202.47490434904)"/><path d="m0 0c-.06-.219-.125-.431-.191-.637.066.206.131.418.191.637" transform="matrix(1.1146666388 0 0 -1.1146666388 101.70971480581 201.53412570589)"/><path d="m0 0c-.406 2.889-1.492 6.594-2.277 8.408.783-1.814 1.869-5.517 2.277-8.408" transform="matrix(1.1146666388 0 0 -1.1146666388 124.38872223883 205.63164027012)"/><path d="m0 0c-.051-.099-.104-.202-.158-.306.053.103.107.207.158.306" transform="matrix(1.1146666388 0 0 -1.1146666388 100.20937350998 205.2403922799)"/><path d="m0 0c-.049-.109-.097-.218-.148-.329.051.11.099.22.148.329" transform="matrix(1.1146666388 0 0 -1.1146666388 100.86925616015 203.86489364762)"/><path d="m0 0c-.052-.107-.106-.217-.16-.327.054.11.108.22.16.327" transform="matrix(1.1146666388 0 0 -1.1146666388 100.55826416792 204.53703763082)"/><path d="m0 0c-.046-.114-.091-.229-.139-.343.048.114.093.229.139.343" transform="matrix(1.1146666388 0 0 -1.1146666388 101.15126681977 203.19274966442)"/><path d="m0 0-.12-.02z" transform="matrix(1.1146666388 0 0 -1.1146666388 130.75346874638 209.34459484396)"/><path d="m0 0c-.025-.202-.057-.404-.084-.605.027.201.059.403.084.605" transform="matrix(1.1146666388 0 0 -1.1146666388 134.61913264974 197.16351781515)"/><path d="m0 0c-.054-.243-.118-.484-.177-.726.059.242.123.482.177.726" transform="matrix(1.1146666388 0 0 -1.1146666388 133.92358066713 201.29335771191)"/><path d="m0 0c-.096-.252-.2-.502-.305-.752.105.25.209.5.305.752" transform="matrix(1.1146666388 0 0 -1.1146666388 132.74872202983 205.30281361167)"/><path d="m0 0c-.123-.254-.253-.504-.388-.753.135.249.265.499.388.753" transform="matrix(1.1146666388 0 0 -1.1146666388 131.92721271703 207.21781089713)"/><path d="m0 0v.001l-.002-.002z" transform="matrix(1.1146666388 0 0 -1.1146666388 130.66541008191 209.49730417348)"/><path d="m0 0c-.073-.251-.155-.497-.235-.745.08.248.162.494.235.745" transform="matrix(1.1146666388 0 0 -1.1146666388 133.40637534672 203.32093632788)"/><path d="m0 0c.73.129 1.916 1.283 1.64 2.445.276-1.162-.91-2.316-1.64-2.445-.141-.025-.295-.037-.463-.037.168 0 .322.012.463.037" transform="matrix(1.1146666388 0 0 -1.1146666388 115.06676513855 40.54839842386)"/><path d="m0 0c-.088.017-.16.016-.209-.01.049.026.121.027.209.01" transform="matrix(1.1146666388 0 0 -1.1146666388 140.34851917317 34.16693191673)"/><path d="m0 0c-.656-.537-1.511-.719-2.401-.742.89.023 1.745.205 2.401.742" transform="matrix(1.1146666388 0 0 -1.1146666388 128.3524768064 38.99566779602)"/><path d="m0 0c-.112.943-.256 1.874-.43 2.793.173-.92.319-1.85.43-2.793" transform="matrix(1.1146666388 0 0 -1.1146666388 88.2790964749 202.62092567872)"/><path d="m0 0c.875.313.744.978.905 1.105-.161-.127-.03-.792-.905-1.105-.217-.077-.607-.187-1.14-.193.533.006.924.116 1.14.193" transform="matrix(1.1146666388 0 0 -1.1146666388 105.97665869913 38.63117180513)"/><path d="m0 0c-.061-.044-.217-.124-.409-.214.192.09.348.17.409.214.33.239.645.682.818 1.162-.174-.48-.49-.923-.818-1.162" transform="matrix(1.1146666388 0 0 -1.1146666388 142.00156979851 38.71588646968)"/><path d="m0 0c.027-.025.085-.032.166-.026-.081-.006-.139.001-.165.026z" transform="matrix(1.1146666388 0 0 -1.1146666388 138.98082320736 39.77036110998)"/><path d="m0 0c.224-.021.41-.355.59-.576-.18.221-.366.555-.59.576" transform="matrix(1.1146666388 0 0 -1.1146666388 90.56081908453 52.16768346672)"/><path d="m0 0c.096-.028.191-.061.286-.092-.096.031-.189.064-.286.092" transform="matrix(1.1146666388 0 0 -1.1146666388 135.17980996905 39.72020111124)"/><path d="m0 0c.462.01.914.016 1.341.014-.427.002-.879-.004-1.341-.014" transform="matrix(1.1146666388 0 0 -1.1146666388 97.31569891566 22.92663353108)"/><path d="m0 0c-.245.889-.514 1.771-.822 2.646.309-.875.578-1.757.822-2.646" transform="matrix(1.1146666388 0 0 -1.1146666388 86.97939517406 195.98865917786)"/><path d="m0 0c-.176.892-.377 1.777-.613 2.653.235-.876.437-1.76.613-2.653" transform="matrix(1.1146666388 0 0 -1.1146666388 87.74628582156 199.23568309668)"/><path d="m0 0c.085-.005.17-.02.256-.028-.086.008-.171.023-.256.028" transform="matrix(1.1146666388 0 0 -1.1146666388 133.58249267565 39.4348464517)"/><path d="m0 0c.098-.017.194-.044.292-.066-.098.022-.194.049-.292.066" transform="matrix(1.1146666388 0 0 -1.1146666388 134.38505265559 39.53182244928)"/><path d="m0 0c.013.011.048.017.103.016-.055.001-.09-.005-.103-.016" transform="matrix(1.1146666388 0 0 -1.1146666388 95.09193897125 35.02745456189)"/><path d="m0 0c.853.238 1.617.331 2.326.342-.709-.011-1.473-.104-2.326-.342" transform="matrix(1.1146666388 0 0 -1.1146666388 87.75297382139 34.72092123622)"/><path d="m0 0c-.016-.157-.035-.314-.051-.47.016.156.035.313.051.47" transform="matrix(1.1146666388 0 0 -1.1146666388 134.84540997741 195.08800853371)"/><path d="m0 0c-1.729-.656-3.906-3.492-4.953-5.557-1.015-1.27-7.156-11.219-9.652-14.54-2.774-3.687-5.729-7.22-8.702-10.611-.7-.604-1.27-1.111-1.907-1.682-1.332 3.714-1.332 7.843-2.38 11.654 1.142.572 2.476.38 3.525.38-1.049.985-2.445.985-3.748.921-.953 4.574-2.381 8.955-3.588 13.433.857.539 2.191.382 2.668 1.207-1.018.031-1.971.286-3.049-.064-3.111 7.623-5.843 15.433-10.575 22.388.666.508 1.936.508 1.969 1.46-.731.478-1.653-.538-2.573-.538-2.953 4.794-6.701 9.113-10.925 13.114-.004-.001-1.852-.52-2.643-.213-.025.009-.051.017-.075.027.821-.314 1.552-.719 2.054-1.053 1-1.016 3.74-3.839 6.148-7.028 5.164-6.841 10.16-17.099 12.195-22.2 1.968-4.936 3.472-9.815 4.218-12.396 4.625-15.995 5.736-24.764 5.5-24.87-12.114-7.906-21.391-11.039-25.124-12-13.219-3.402-24.283-.848-26.723-.831-2.476.223-12.351 2.476-15.632 3.641-6.002 2.129-10.438 3.377-16.217 5.95-4.352 1.651-8.977 4.001-12.469 5.693l-2.258 1.378c-1.15.548-2.884 1.096-3.515 2.306-.905 1.735.828 3.774-.541 5.588-1.584 2.097-4.537.572-6.559.338-.057.412.834 4.706 1.158 4.735.219.02 1.254-.438 1.313-.358.129.171.244.439.219.457-.557.438-1.293.559-1.252.678.103.462.619 1.405.816 2.144 1.842 5.717 4.543 11.241 6.924 16.83 1.461-.064 2.826-.921 4.191-.762.096.224-.127.317-.158.476-1.176.445-2.287 1.015-3.494 1.429 2.795 5.241 5.43 10.353 8.447 15.465.572-.128 1.143-.476 1.684-.446-.065.669-.826.637-1.143 1.209.223.647.59 1.134.59 1.143l-1.193 1.904c.666 1.525.031 2.557.316 4.67.063 1.681.787 5.826 2.842 9.495-2.057-3.669-2.781-7.814-2.844-9.495-.285-2.113.35-3.145-.316-4.67-.287-.937-.469-1.169-.901-1.872-.984.635-2.021 1.397-2.91 2.19-.318.127-.508.127-.826 0 .635-1.492 1.811-1.969 3.16-3.08-.445-.191-6.875-12.575-8.432-15.91-1.396.382-2.603 1.238-3.875 1.844-.507.126-.888.03-1.238-.382 1.43-1.144 2.86-1.714 4.414-2.51-.793-2.001-1.873-4.033-2.73-6.098-1.557-4.223-3.08-8.762-4.795-13.113-1.524.476-2.795 1.144-4.287 1.586-.256-.137-.381-.126-.604-.507 1.207-1.111 3.049-1.303 4.668-1.842-.951-2.541-1.523-4.362-1.523-6.033-1.471-.614-4.522-2.723-7.446-4.871-2.824-2.076-5.527-4.189-6.57-5.026-1.533-1.233-5.933-4.11-8.785-6.997-2.313-2.342-3.281-4.714-3.445-6.032-.28-2.255 1.336-5.476 1.769-6.376 1-2.072 2.787-4.042 3.137-4.677 1.111-1.302 1.842-2.444 3.111-3.653-.476-.126-.74-.586-1.142-1.141-.539-1.081-1.121-1.451-.91-3.462.16-4.733 3.388-6.499 7.199-8.151 2.633-1.401 5.515-2.08 8.424-2.643 1.306-.253 2.654-.446 3.931-.824 4.557-1.352 6.127-5.993 9.936-8.388 1.238-.793 2.635-1.239 4.031-1.684 1.145-.793 2.287-1.713 3.432-2.603 5.207-3.271 10.732-6.129 16.607-8.066l2.922-.761c.793-.574 2.033-.382 2.635-1.08h.922c1.746-.476 3.619-.858 5.334-1.143h.857c1.27-.476 2.414-.032 3.652-.604l1.303.01c3.111-.349 6.668-.01 9.652.085 1.495.128 2.668.285 4.129.445.539-.827 1.112-1.747 1.526-2.667-.412.92-.985 1.84-1.524 2.667l2.125.221c.953.192 2.002.54 3.049.604 1.272-1.904 1.873-4.224 2.445-6.478-.57 2.254-1.173 4.574-2.443 6.478l.983.159h-.001c1.145 0 2.065.57 3.145.699.889-1.715.889-2.61 1.365-5.875-.474 3.265-.476 4.16-1.363 5.875l.982.064c.762.381 1.715.508 2.604.761.223-.348.127-.856.381-1.207 1.207-4.668.717-9.739-.459-14.057 1.176 4.318 1.668 9.389.461 14.057-.254.351-.16.859-.381 1.207l1.744.602v.001c6.828 2.351 13.941 5.526 19.436 10.766 3.969 2.92 6.479 8.669 11.653 8.923 3.051-.254 6.098-.412 9.145-.254 3.176.254 6.067 1.556 7.621 4.287.254.38.606 1.524.415 1.905-.639 2.024-2.731 5.259-5.25 8.248-2.487 2.953-5.405 5.667-5.897 6.74-.621 4.09-1.911 9.899-2.825 18.388 1.903-1.429 4.255-1.778 6.477-2.446 2.889-.508 5.684-.782 8.604-1.131 4.562 0 10.318-.202 14.867 1.879 3.137 1.435 4.856 4.939 5.207 5.878 1.461 5.108 1.352 9.927 1.279 12.589-.089 3.295-.898 6.652-1.091 7.618-1.174 3.842-1.692 7.819-4.979 11.462-2.398 2.487-5.072 4.951-6.676 4.607zm7.019-7.526c3.557-6.161 4.414-13.496 4.191-20.451.082-1.162-.254-7.174-2.843-10.491-2.44-3.12-7.092-3.582-8.524-3.734-6.351-.572-12.996.026-19.031 1.637-2.738.729-3.451 1.632-4.881 2.077-.412 1.588-.762 3.175-.762 4.732.858.89 2.635 1.91 3.27 2.862 2.816 2.635 4.287 4.568 6.416 7.108.73 1.113 8.383 12.448 10.955 17.022 1.238 1.525 1.873 3.08 3.207 4.479 1.303 1.363-.031-3.072.158-3.484-.685-3.494-.834-5.17-1.057-7.834-.128-1.529-.605-4.126-.882-8.075-.144-2.033-.274-3.865-.356-5.669.003.002.007.004.01.006-.003-.003-.007-.006-.01-.009m-19.615-32.087c-.479-.381-4.617-3.502-8.414-5.636-3.422-1.923-9.655-4.539-10.767-4.884.032.856 0 1.365-.062 2.381-.192 1.143-.604 2.383-.86 3.556-1.142 3.653-2.127 7.463-4.414 10.512 2.291-.85 4.348-1.709 6.629-2.542 1.491-.544 3.998-.822 5.47.144 2.045 1.34 1.963 2.109 2.785 4.301 1.588 4.236.85 7.133.36 10.545 2 .953 3.906 2.286 5.714 3.495.192-.509 2.159-12.064 2.606-13.932.635-2.647 1.482-7.515.953-7.94zm11.525-14.109c.668-1.016-.125-2.127-1.047-2.667-.919-.699-2.433-1.642-4.445-1.853-2.428-.659-9.42 1.058-12.912.009-2.82-.846-5.012-3.562-6.923-5.74-1.035-1.178-4.832-4.816-6.627-5.489-2.541-.952-6.138-.952-8.468-.952-3.02 0-8.573 1.903-11.749 2.857-7.199 1.799-10.513-1.629-15.785-2.772-1.427-.311-6.103-1.301-7.609-1.462-2.963-.319-5.293.105-8.891.952-1.607.378-3.554 1.39-4.976 2.223-1.489.874-2.629 1.453-4.34 1.8-2.156.437-4.69-.271-7.938-.954-2.168-.453-7.623-.401-8.384-.431-4 .063-7.209 3.206-9.686 6.096-1.705 1.989-3.246 3.725-5.793 4.655-2.285.834-4.736 1.078-7.099 1.601-4.209.931-13.858 4.296-11.877 10.384.16.697.761 1.269 1.207 1.809 1.462-.953 4.437-3.464 7.779-5.017 3.545-1.646 8.527-3.223 12.521-2.336 1.75.388 3.338 1.764 3.325 5.385.16 2.444-.159 8.573-.221 9.368.539-.222 2.953-1.969 3.588-2.065 10.162-4.287 20.609-7.907 31.248-11.115 1.873-.601 13.463-3.415 17.146-3.808 3.963-.423 14.276-.473 14.991-.922.666-.417.847-1.357 1.867-1.426 1.679-.11 2.738 1.372 2.738 1.372s3.107-.059 6.35.375c3.166.423 6.459 1.34 7.113 1.425.443-.477 1.176-.604 1.842-.762 1.334-.063 1.556.889 2.064 1.842 4.35.92 8.288 2.921 12.099 5.176 2.699 1.842 5.367 3.715 8.097 5.399 3.112-2.668 9.78-11.528 10.795-12.957zm-37.469-20.577c-1.416-.806-7.338-3.243-8.819-3.724-3.416-1.109-6.961-1.779-10.488-2.5-5.451-1.113-14.023-1.48-15.803-1.4-1.523.068-5.738.5-8.806.923-3.049.421-9.422 2.54-13.446 4.232-3.715 1.747-12.025 5.962-12.756 7.042 4.924-.318 8.639 2.222 13.338 1.078 1.262-.304 2.754-1.188 5.453-2.403 2.118-.951 5.081-1.693 7.622-1.905 3.058-.253 4.584-.319 7.63.054 3.192.39 6.252 1.407 9.309 2.364 3.449 1.08 6.686 2.138 10.299 1.327 3.377-.762 6.676-1.861 10.076-2.52 1.979-.385 3.992-.597 6.01-.504 2.095.285 4.318.222 6.002 1.525-1.526-1.303-3.78-2.542-5.621-3.589zm-108.86 36.943c-1.41 1.809-2.543 3.855-2.888 4.433-.508 1.494-1.588 3.271-1.27 4.827.508 2.891 3.111 4.985 5.334 6.924 3.783 3.295 7.621 6.601 11.629 9.622 3.475 2.616 8.125 6.142 12.603 6.616.981.104 1.594-.207 1.957-.753.954-1.434.182-4.491-.13-5.906-1.057-4.781-1.649-9.22-1.924-14.088-.412-7.304-.317-14.704-.985-21.943-.666-2.679-4.382-1.969-6.701-1.588-3.906 1.175-7.588 2.667-10.89 4.89-1.594 1.127-4.51 4.11-6.735 6.966zm28.932 25.497c1.92-1.576 7.521-4.668 13.41-7.217 3.529-1.529 10.152-4.349 16.012-6.349 4.871-1.664 9.215-2.613 10.812-3.136-.033-.731 2.414-7.908 4.033-10.671 1.184-2.287 3.133-4.375 8.29-3.017 2.361.623 8.761 4.234 10.097 4.86 1.047.825 2.19 1.429 3.27 2.128-.127-1.272-2.192-12.957-2.223-17.371-2.373-.015-8.928.011-15.812 1.041-3.907.585-11.479 2.262-18.629 4.341-6.377 1.852-12.42 4.089-15.227 5.133-5.107 1.898-9.824 3.707-11.525 4.41-1.619.952-3.588 1.462-4.635 3.27.176 1.21.098 6.435.518 11.562.427 5.234 1.353 10.368 1.609 11.016zm67.797-24.175c.265-2.323.22-10.985.32-13.05.065-1.318.367-3.973-.869-4.928-1.955-1.51-2.338 2.775-2.182 3.88.36 2.532.7 5.06 1.08 7.575.459 3.032.973 6.046 1.651 9.032-.127-.89.094-1.484 0-2.509zm-11.151 4.934c5.364-.336 10.327-.011 11.754.02-.572 0-.478-.367-1.207-1.207-2.73-2.429-5.883-4.204-9.084-5.796-1.525-.76-6.009-3.647-9.607-3.224-2.33.636-3.242 2.738-4.537 5.618-1.42 3.155-1.742 6.454-1.858 6.737 2.889-.763 8.932-1.795 14.539-2.148zm15.026-5.093c2.254-.699 4.857-.255 6.256 1.684.888-2.636 2.701-11.232 3.146-12.789.008-.031 1.07-3.792.715-3.986-1.574-.859-10.32-1.733-12.531-1.803.189 6.034-.063 12.575-.096 18.735.953-.539 1.398-1.619 2.51-1.841zm-1.43 5.493c1.045-.298 1.752-.398 2.84-.244.293.043 3.809.908 3.66 1.144.1-.16 1.568-1.687 1.49-1.827-.006-.013-.013-.024-.019-.037-.418-.763-.717-1.674-1.307-2.33-1.916-2.136-4.791-1.781-6.789.1-1.092 1.03-.262 2.043.125 3.194zm8.924-1.683c.916-1.007 1.588-2.195 2.197-3.41.078-.156.154-.311.231-.467.617-1.261 2.515-6.725 3.029-8.105.416-1.12 2.305-6.966.031-7.304-1.217-.181-2.183 2.835-2.314 3.759-.348 2.508-2.824 12.225-3.651 14.48.223.317.127.794.477 1.047zm16.448 10.512c.12-.763-.062-.604.158-.889.123-.872.369-3.49-.164-6.066-.265-1.281-1.092-5.211-3.151-6.182-2.395-1.128-6.156.844-8.02 1.588-3.64 1.455-6.703 4.179-6.769 4.157 6.201 2.057 12.246 4.124 17.946 7.392" transform="matrix(1.1146666388 0 0 -1.1146666388 199.04909370565 74.9548135637)"/></g><path d="m0 0c0 .192-.412.852-.412 1.043-1.191 1.745-2.191 2.07-3.779 2.229-2.287.412-4.383-.192-5.875-1.841 3.683.538 6.763-.16 10.066-1.431" fill="#a6d0f0" transform="matrix(1.1146666388 0 0 -1.1146666388 117.17794375243 13.43636176833)"/><path d="m0 0c-1.588 1.112-7.026 2.868-12.133 2.833-1.535-.011-3.112-.159-4.446-.92.315-.75 1.123-2.693 1.606-4.704.539-2.253.748-4.589.998-5.427 1.241.28 2.217.408 3.186.444.796.066 1.643.099 2.486.067 1.75-.067 4.13-.577 5.481-.898-.09.664 1.903 5.143 2.345 6.541.059.183.615 1.968.477 2.064" fill="#2d7ac8" transform="matrix(1.15472466713 0 0 -1.18941410626 120.50938846915 16.2377064983)"/><path d="m0 0c1.051-.334 2.115-.612 3.223-.727-1.485.155-2.891.6-4.293 1.084.355-.123.713-.243 1.07-.357" fill="#fff" transform="matrix(1.1146666388 0 0 -1.1146666388 129.30217278266 37.08401451047)"/><path d="m0 0c3.08 2.89 1.322 6.193 3.481 10.682.806 1.49 1.334 1.649 2.191 2.381-1.031.119-2.06.321-3.24.299-.709-.011-1.473-.104-2.326-.342-1.608-.449-3.229-1.259-4.563-2.338-1.945-1.573-3.765-3.85-4.635-6.206-.564-1.533-.605-3.17 0-4.699.413-1.04.78-1.891 1.577-2.689.793-.793 2.339-1.585 2.804-1.375.024.011 1.524 2.478 4.711 4.287" fill="#d39e6b" stroke="#d39e6b" transform="matrix(1.1146666388 0 0 -1.1146666388 87.63481915768 49.23388087339)"/><path d="m0 0c3.144-4.606 5.113-10.766 3.588-16.005-.444-1.747-1.969-3.049-3.588-3.715 1.429-2.986.793-6.734-1.526-9.368-.888-.825-1.777-1.778-2.888-2.287.433.197 1.57-1.677 1.179-3.529-.334-1.583-1.443-2.678-2.504-3.164-.937-.429-2.189-.859-3.392-.952-1.137-.088-2.617.227-3.682.653-.258.103-2.578 1.651-2.271 1.879.127.096-.063.255.064.381-.082-.337 2.823-1.45 3.184-1.517 2.129-.392 5.931.182 7.041 2.343.603 1.174-.065 2.381-.635 3.366-.465-.255-.582-.763-1.285-1.856-.445-.605-.938-1.51-1.764-1.669-1.269.318-2.383 1.588-2.668 2.825-2.634.604-5.367 1.843-6.605 4.511-.254-.35-.762-.572-1.08-.762-.285 1.396.4 2.544 1.258 3.688.253.444.703.585 1.252.566.269-.189.462-.597.222-1.037-.24-.437-.91-.903-1.096-1.207-.199-.322-.322-.64-.251-.843.322-.933 1.791-1.893 2.605-2.358.326-.186.859-.549 1.357-.74.254-.098 1.121-.346 1.121-.346s.04.696.118 1.182c.209 1.277.429 1.981 1.353 2.905.51.509 1.262.707 1.971.695 1.006.035 1.447-.658 1.447-.658s1.004.442 1.6.439c.838-.004 1.57-.408 1.842-.926.48-.916-.075-2.219-.096-2.503.258.114 2.707 1.926 3.515 4.229.688 1.464.53 4.111-1.058 5.91-2.484 2.816-6.359 3.241-8.236 2.975-3.399-.317-6.381-2.647-8.684-5.352-.234-.277-.463-.558-.684-.84-.318.255-.134.408-.095.408.099.217.369.621.484.828 2.035 3.616 6.281 5.744 9.647 6.766-.415.794-.635 1.302-1.145 2.446-2.096 4.414-3.303 9.019-1.904 13.94.244.689.316.859.634 1.239-.826.887-1.81 1.556-2.541 2.509-.253.667.508 1.27 1.018 1.587.508.253.729-.348 1.047-.667.445-.729.699-1.746 1.08-2.604.762.54 1.715 1.365 2.826 1.461-.17 1.45-.285 2-.381 3.048.412.573 1.959-.01 1.959-.01s-.158-2.091-.318-3.07c1.641-.053 2.562-.605 2.965-.9.158 1.113.424 1.614 1.058 3.334.53-.317 1.006-.476 1.481-1.132-.508-.888-.983-1.863-1.586-2.785 1.205-1.206 1.935-1.916 3.047-3.311zm-7.082-54.176c-1.139-.893-2.301-.779-3.612-.333-1.121.384-1.99 1.287-1.67 2.546.333 1.311 1.122 2.356 2.409 2.817 1.414.508 2.763-.344 3.416-1.547.617-1.132.613-2.577-.543-3.483zm16.586 24.744c.838.906 1.845 1.299 3.009.691.155-.08.29-.187.409-.316.756-.826.773-2.518.222-3.372-1.129-1.745-3.16-1.404-4.019.313-.401.801-.225 2.032.379 2.684zm8.222-16.645c1.636.747 3.913.84 5.22-.557.078-.084.154-.173.225-.269 1.152-1.537.957-3.747.297-5.431-1.114-1.683-2.733-2.065-4.574-1.842-1.08.243-2.125.446-2.976 1.206-.793.707-.709 1.506-.762 2.514-.092 1.806.91 3.62 2.57 4.379zm-45.322 26.039c-4.701-1.439-6.73 1.042-9.082 3.81-2.352 2.769-2.969 9.934-2.033 13.274.935 3.341 1.209 4.439 3.351 6.384-.666 1.112-2.195 2.819-2.144 3.141.053.324 1.668 1.106 1.906.984.236-.119.92-2.698.984-3.65.825.857 1.938.984 2.889 1.43-.021.159-.14.676-.459 1.509-.316.861-.74 1.547-.662 1.813.08.266 1.879.345 2.065 0 .185-.343.343-2.247.296-3.164 1.239.128 2.286-.127 3.334-.667.381.697.414 2.298.604 3.091.039.356.476-.04 1.15-.24.557-.357 1.104-.501.69-1.106-.604-.538-.889-1.459-1.524-2.126 1.207-.922 1.668-1.213 3.049-3.524 1.381-2.313 2.541-6.448 2.51-9.909-.287-4.381-2.223-9.612-6.924-11.05zm-10.166-11.086c-.137-.432-.564-1.058-.978-1.268-.67-.341-1.541-.815-2.6-.278-.572.292-.971.933-1.193 1.514-.248.651-.223 1.769.248 2.321.492.572.632.899 1.289 1.264.715.398 1.257.413 1.591.372.899-.104 1.43-.901 1.657-1.81.183-.734.166-1.541-.014-2.115zm-5.488-24.949c-1.549-1.88-4.207-1.87-6.225-.77-5.14 2.804-.625 11.793 4.979 8.911.55-.282.972-.601 1.293-.951 1.623-1.78 1.4-5.431-.047-7.19zm40.886 64.215c-.139.04-.281.072-.421.103-.098.022-.194.049-.292.066-.155.028-.309.043-.464.059-.086.008-.171.023-.256.028-.24.013-.479.01-.713-.015-1.361-.144-2.795 1.377-3.979.409-.656-.537-1.511-.719-2.401-.742-.89-.021-1.813.117-2.604.219-1.825.238-3.62.773-5.274 1.575.276-1.162-.91-2.316-1.64-2.445-.141-.025-.295-.037-.463-.037-1.171.002-2.971.6-4.969 1.576-.134.066-1.076.768-1.549 1.106-.158.113-.264.185-.269.18-.161-.127-.03-.792-.905-1.105-.216-.077-.607-.187-1.14-.193-.268-.001-.57.022-.903.088-.334.068-.699.178-1.091.348-1.069.463-1.918 1.358-2.983 1.855-1.818.846-3.161 1.148-3.545 1.151-.055.001-.09-.005-.103-.016-1.494-1.143-2.702-3.016-2.922-4.732-.104-.295-.487-3.831-1.016-5.896-.529-2.064-2.601-3.42-3.144-3.852-1.112-.793-2.637-1.589-3.368-2.826 2.225-.477 4.129 1.047 6.098 1.778.103.118.197.16.287.151.224-.021.41-.355.59-.576.035-.045.071-.084.107-.116.192-.603.288-1.27-.062-1.841-2.668-2.985-6.383-4.826-10.289-4.858-.252-.978-.578-3.614-.539-5.909.049-2.923.605-5.638.316-7.198-1.135-6.127-7.937-9.208-10.478-13.124-2.983-4.597-.922-9.78-1.494-14.702-.184-1.243-.633-3.605-3.481-5.834 3.492-1.692 8.117-4.042 12.469-5.693 5.779-2.573 10.215-3.821 16.217-5.95 3.281-1.165 13.156-3.418 15.632-3.641 2.44-.017 13.504-2.571 26.723.831 3.733.961 13.01 4.094 25.124 12 .236.106-.875 8.875-5.5 24.87-.746 2.581-2.25 7.46-4.218 12.396-2.035 5.101-7.031 15.359-12.195 22.2-2.408 3.189-5.148 6.012-6.148 7.028-.502.334-1.233.739-2.054 1.053-.132.05-.269.094-.405.139-.095.031-.19.064-.286.092" fill="#feefad" transform="matrix(1.1146666388 0 0 -1.1146666388 137.81488190318 48.79581688435)"/><path d="m0 0c-.233-3.594-1.651-6.213-2.498-7.274-.655-.925-3.811-3.658-6.826-3.024-1.942.409-4.963 3.004-6.352 6.71-1.127 3.007-.846 7.149-.676 8.217.764 3.08 1.342 5.912 4.264 7.753 1.588 1.333 4.047 1.736 6.223.603.816-.423 2.816-1.766 3.804-3.673 1.649-3.179 2.174-7.577 2.061-9.312zm-4.563 13.462c.635.667.92 1.588 1.524 2.126.414.605-.133.749-.69 1.106-.674.2-1.111.596-1.15.24-.19-.793-.223-2.394-.604-3.091-1.048.54-2.095.795-3.334.667.047.917-.111 2.821-.296 3.164-.186.345-1.985.266-2.065 0-.078-.266.346-.952.662-1.813.319-.833.438-1.35.459-1.509-.951-.446-2.064-.573-2.889-1.43-.064.952-.748 3.531-.984 3.65-.238.122-1.853-.66-1.906-.984-.051-.322 1.478-2.029 2.144-3.141-2.142-1.945-2.416-3.043-3.351-6.384-.936-3.34-.319-10.505 2.033-13.274 2.352-2.768 4.381-5.249 9.082-3.81 4.701 1.438 6.637 6.669 6.924 11.05.031 3.461-1.129 7.596-2.51 9.909-1.381 2.311-1.842 2.602-3.049 3.524" fill="#231f20" transform="matrix(1.1146666388 0 0 -1.1146666388 113.66228517366 58.84676596641)"/><path d="m0 0c-3.264-2.26-5.238 4.297-5.238 6.511-.002 2.221.722 3.703 2.328 4.179 1.201.356 2.275.053 3.226-1.323.954-1.375 1.012-2.808 1.114-4.079.144-1.818.195-4.164-1.43-5.288zm.602 17.539c-2.176 1.133-4.635.73-6.223-.603-2.922-1.841-3.5-4.673-4.264-7.753-.17-1.068-.451-5.21.676-8.217 1.389-3.706 4.41-6.301 6.352-6.71 3.015-.634 6.171 2.099 6.826 3.024.847 1.061 2.265 3.68 2.498 7.274.113 1.735-.412 6.133-2.061 9.312-.988 1.907-2.988 3.25-3.804 3.673" fill="#fff" transform="matrix(1.1146666388 0 0 -1.1146666388 106.45373602054 63.9229578395)"/><path d="m0 0c1.142-1.047 1.64-2.032 2.646-3.779 2.002-4.129 3.83-9.652.783-14.067-.668-.825-1.81-1.523-2.795-1.459-.148.275-.951 1.131-2.38 1.926-1.397.774-2.858 1.111-4.178 1.462-.35.092-.569.456-.778.802-2.74 4.535-4.984 10.195-3.048 15.719.699 1.334 1.906 2.827 3.589 2.731.78-.034 2.436-.267 3.78-1.079 1.17-.709 2.07-1.989 2.381-2.256zm-3.114-30.199c-.068-.573-.252-1.122-.326-1.153-1.742-.713-4.463-.871-6.351-.689-.096.23-.264 1.631.164 2.636.213.503.697 1.073 1.328 1.367.312.147.885.329 1.4.139.748-.294.977-.76 1.055-.838.238-.032.775.483 1.318.618.545.135 1.096-.11 1.35-.396.285-.54.318-.827.062-1.684zm-3.111-4.033c-.762-1.714-1.811.414-2.287.921.953-.222 1.937.191 2.891.159-.413-.348-.286-.697-.604-1.08zm4.902 40.827c-.634-1.72-.9-2.221-1.058-3.334-.403.295-1.324.847-2.965.9.16.979.318 3.07.318 3.07s-1.547.583-1.959.01c.096-1.048.211-1.598.381-3.048-1.111-.096-2.064-.921-2.826-1.461-.381.858-.635 1.875-1.08 2.604-.318.319-.539.92-1.047.667-.51-.317-1.271-.92-1.018-1.587.731-.953 1.715-1.622 2.541-2.509-.318-.38-.39-.55-.634-1.239-1.399-4.921-.192-9.526 1.904-13.94.51-1.144.73-1.652 1.145-2.446-3.366-1.022-7.612-3.15-9.647-6.766-.115-.207-.385-.611-.484-.828-.039 0-.223-.153.095-.408.221.282.45.563.684.84 2.303 2.705 5.285 5.035 8.684 5.352 1.877.266 5.752-.159 8.236-2.975 1.588-1.799 1.746-4.446 1.058-5.91-.808-2.303-3.257-4.115-3.515-4.229.021.284.576 1.587.096 2.503-.272.518-1.004.922-1.842.926-.596.003-1.6-.439-1.6-.439s-.441.693-1.447.658c-.709.012-1.461-.186-1.971-.695-.924-.924-1.144-1.628-1.353-2.905-.078-.486-.118-1.182-.118-1.182s-.867.248-1.121.346c-.498.191-1.031.554-1.357.74-.814.465-2.283 1.425-2.605 2.358-.071.203.052.521.251.843.186.304.856.77 1.096 1.207.24.44.047.848-.222 1.037-.549.019-.999-.122-1.252-.566-.858-1.144-1.543-2.292-1.258-3.688.318.19.826.412 1.08.762 1.238-2.668 3.971-3.907 6.605-4.511.285-1.237 1.399-2.507 2.668-2.825.826.159 1.319 1.064 1.764 1.669.703 1.093.82 1.601 1.285 1.856.57-.985 1.238-2.192.635-3.366-1.11-2.161-4.912-2.735-7.041-2.343-.361.067-3.266 1.18-3.184 1.517-.127-.126.063-.285-.064-.381-.307-.228 2.013-1.776 2.271-1.879 1.065-.426 2.545-.741 3.682-.653 1.203.093 2.455.523 3.392.952 1.061.486 2.17 1.581 2.504 3.164.391 1.852-.746 3.726-1.179 3.529 1.111.509 2 1.462 2.888 2.287 2.319 2.634 2.955 6.382 1.526 9.368 1.619.666 3.144 1.968 3.588 3.715 1.525 5.239-.444 11.399-3.588 16.005-1.112 1.395-1.842 2.105-3.047 3.311.603.922 1.078 1.897 1.586 2.785-.475.656-.951.815-1.481 1.132" fill="#231f20" transform="matrix(1.1146666388 0 0 -1.1146666388 136.01023661496 48.09023290199)"/><path d="m0 0c.088-1.198.455-3.796-1.556-4.659-2.223-.951-4.082 3.058-4.241 5.099-.115 1.49-.142 4.006 1.579 4.734.857.364 1.56.242 2.132-.161 1.381-.978 1.981-3.609 2.086-5.013zm-5.176 11.876c-1.683.096-2.89-1.397-3.589-2.731-1.936-5.524.308-11.184 3.048-15.719.209-.346.428-.71.778-.802 1.32-.351 2.781-.688 4.178-1.462 1.429-.795 2.232-1.651 2.38-1.926.985-.064 2.127.634 2.795 1.459 3.047 4.415 1.219 9.938-.783 14.067-1.006 1.747-1.504 2.732-2.646 3.779-.311.267-1.211 1.547-2.381 2.256-1.344.812-3 1.045-3.78 1.079" fill="#fff" transform="matrix(1.1146666388 0 0 -1.1146666388 134.91228997574 57.61060066398)"/><path d="m0 0c-.572.403-1.275.525-2.132.161-1.721-.728-1.694-3.244-1.579-4.734.159-2.041 2.018-6.05 4.241-5.099 2.011.863 1.644 3.461 1.556 4.659-.105 1.404-.705 4.035-2.086 5.013" fill="#231f20" transform="matrix(1.1146666388 0 0 -1.1146666388 132.5870953672 52.02277680367)"/><path d="m0 0c-.951 1.376-2.025 1.679-3.226 1.323-1.606-.476-2.33-1.958-2.328-4.179 0-2.214 1.974-8.771 5.238-6.511 1.625 1.124 1.574 3.47 1.43 5.288-.102 1.271-.16 2.704-1.114 4.079" fill="#231f20" transform="matrix(1.1146666388 0 0 -1.1146666388 106.8059706784 53.48187543386)"/><path d="m0 0c-2.225-.235-3.536-.5-5.877-.314-1.698.135-2.594-.038-4.276.261-.201.035-2.822.486-2.638.775.382.604 2.314.288 2.888.251 1.42-.088 2.836-.242 4.258-.291 1.324-.046 2.619.261 3.934.261 1.281 0 2.49.079 3.759.352.602.13 2.553.376 3.428.217-.98-.82-4.189-1.378-5.476-1.512zm-3.226 6.915c-.687-.389-1.367-.784-2.017-1.206-2.095-.92-4.191-2.286-6.541-2.826-.222.159-.222.604 0 .763 2.397 1.079 5.495 2.132 8.558 3.269zm-10.78-2.825c2.634 2.889 5.715 5.558 8.097 8.478.889 1.27 1.905 2.509 2.508 3.653.477.381.985.857 1.365 1.365-.064-.413-.316-.889-.603-1.302-1.365-2.191-2.889-4.223-4.508-6.256-2.064-2.222-4.033-4.476-6.478-6.16-.192-.095-.254.159-.381.222zm26.451 26.389s-5.495 8.337-8.002 5.241c-1.216-1.502-1.969-2.954-3.207-4.479-2.572-4.574-10.225-15.909-10.955-17.022-2.129-2.54-3.6-4.473-6.416-7.108-.635-.952-2.412-1.972-3.27-2.862 0-1.557.35-3.144.762-4.732 1.43-.445 2.143-1.348 4.881-2.077 6.035-1.611 12.68-2.209 19.031-1.637 1.432.152 6.084.614 8.524 3.734 2.589 3.317 2.925 9.329 2.843 10.491.223 6.955-.634 14.29-4.191 20.451" fill="#82d4bd" transform="matrix(1.1146666388 0 0 -1.1146666388 193.00091252353 117.3177191713)"/><path d="m0 0c-.57-.317-1.238-.411-1.809-.158-.794.604-.794 1.557-.541 2.445.288.667.985 1.303 1.684 1.46.772.177 1.295-.571 1.469-1.252.033-.136.054-.269.058-.391.041-.885-.041-1.648-.861-2.104zm-.059 4.495c-.334.041-.876.026-1.591-.372-.657-.365-.797-.692-1.289-1.264-.471-.552-.496-1.67-.248-2.321.222-.581.621-1.222 1.193-1.514 1.059-.537 1.93-.063 2.6.278.414.21.841.836.978 1.268.18.574.197 1.381.014 2.115-.227.909-.758 1.706-1.657 1.81" fill="#d39e6b" transform="matrix(1.1146666388 0 0 -1.1146666388 93.95720833295 84.12406133447)"/><path d="m0 0c-.543-.135-1.08-.65-1.318-.618-.078.078-.307.544-1.055.838-.515.19-1.088.008-1.4-.139-.631-.294-1.115-.864-1.328-1.367-.428-1.005-.26-2.406-.164-2.636 1.888-.182 4.609-.024 6.351.689.074.031.258.58.326 1.153.256.857.223 1.144-.062 1.684-.254.286-.805.531-1.35.396" fill="#f68aca" transform="matrix(1.1146666388 0 0 -1.1146666388 130.96525540775 79.4335441184)"/><path d="m0 0c-.174.681-.697 1.429-1.469 1.252-.699-.157-1.396-.793-1.684-1.46-.253-.888-.253-1.841.541-2.445.571-.253 1.239-.159 1.809.158.82.456.902 1.219.861 2.104-.004.122-.025.255-.058.391" fill="#d39e6b" transform="matrix(1.22613330268 0 0 -1.22613330268 95.0326488394 81.25826860612)"/><path d="m0 0c.387-.082.695-.432.877-.866.305-.733.25-1.713-.406-2.039-.998-.499-2.99-.634-2.797.998.113.97 1.287 2.126 2.326 1.907zm1.199-3.197c.551.854.534 2.546-.222 3.372-.119.129-.254.236-.409.316-1.164.608-2.171.215-3.009-.691-.604-.652-.78-1.883-.379-2.684.859-1.717 2.89-2.058 4.019-.313" fill="#d39e6b" transform="matrix(1.1146666388 0 0 -1.1146666388 151.12957490364 81.37975206975)"/><path d="m0 0c.656.326.711 1.306.406 2.039-.182.434-.49.784-.877.866-1.039.219-2.213-.937-2.326-1.907-.193-1.632 1.799-1.497 2.797-.998" fill="#d39e6b" transform="matrix(1.28770140781 0 0 -1.37009371508 151.89463141785 85.02084611205)"/><path d="m0 0c.476-.507 1.525-2.635 2.287-.921.318.383.191.732.604 1.08-.954.032-1.938-.381-2.891-.159" fill="#f68aca" transform="matrix(1.1146666388 0 0 -1.1146666388 126.52219418549 85.22089330705)"/><path d="m0 0c1.619 2.033 3.143 4.065 4.508 6.256.287.413.539.889.603 1.302-.38-.508-.888-.984-1.365-1.365-.603-1.144-1.619-2.383-2.508-3.653-2.382-2.92-5.463-5.589-8.097-8.478.127-.063.189-.317.381-.222 2.445 1.684 4.414 3.938 6.478 6.16" fill="#009f95" transform="matrix(1.1146666388 0 0 -1.1146666388 185.03439005602 106.13984211741)"/><path d="m0 0c.683.985 1.885 1.901 3.143 1.826 1.059-.064 2.461-.58 3.041-1.527.051-.084.098-.177.139-.279.416-1.022.344-2.878-.24-3.69-1.205-1.681-3.823-1.652-5.55-.889-1.693.748-1.43 3.268-.533 4.559zm2.273-6.021c1.841-.223 3.46.159 4.574 1.842.66 1.684.855 3.894-.297 5.431-.071.096-.147.185-.225.269-1.307 1.397-3.584 1.304-5.22.557-1.66-.759-2.662-2.573-2.57-4.379.053-1.008-.031-1.807.762-2.514.851-.76 1.896-.963 2.976-1.206" fill="#d39e6b" transform="matrix(1.1146666388 0 0 -1.1146666388 156.34175610667 102.47258887576)"/><path d="m0 0c1.727-.763 4.345-.792 5.55.889.584.812.656 2.668.24 3.69-.041.102-.088.195-.139.279-.58.947-1.982 1.463-3.041 1.527-1.258.075-2.46-.841-3.143-1.826-.897-1.291-1.16-3.811.533-4.559" fill="#d39e6b" transform="matrix(1.24200676362 0 0 -1.24334841692 156.67160623176 107.82765514188)"/><path d="m0 0c.024-2.126-.644-4.365-2.976-4.904-2.039-.471-4.485.422-4.821 2.727-.252 1.713.307 3.884 1.858 4.83 1.787 1.088 4.693.401 5.635-1.417.189-.368.298-.782.304-1.236zm-1.603 3.672c-5.604 2.882-10.119-6.107-4.979-8.911 2.018-1.1 4.676-1.11 6.225.77 1.447 1.759 1.67 5.41.047 7.19-.321.35-.743.669-1.293.951" fill="#d39e6b" transform="matrix(1.1146666388 0 0 -1.1146666388 90.00348576513 106.31707411298)"/><path d="m0 0 .027.027c-.084-.016-.289.007-.498.445 3.715 3.938 8.637 8.247 12.193 11.71.637.492.733.713 1.176.901.16.095.508-.49.731-.744-5.135-3.931-8.915-7.878-13.602-12.312.01.001.016.001.021.004.026.013.023.007 0 0-.01-.006-.025-.014-.048-.031zm16.756 12.878c-2.827-4.383-4.711-7.447-7.782-13.433-2.125-3.933-3.263-5.555-4.566-9.207.033.382.099-.113-.315.238.791 3.513 1.661 4.686 2.414 6.431 1.43 2.82 2.231 4.746 4.596 9.397 1.209 2.38 2.826 4.542 4.414 6.638.381.062 1.112.54 1.239-.064zm2.587.224c.305-.033.573.064.541-.254-1.652-5.653-2.673-9.515-4.009-15.622-.515-2.363-1.139-4.476-1.944-6.746-.002-.014-.011-.044-.041-.121.014.041.027.08.041.121.007.059-.217-.356-.398-.201.795 1.811.873 3.533 1.502 6.494.648 3.047 1.006 5.309 1.547 8.39.347 2.382 1.25 5.114 1.918 7.431.129.408-.127.65.843.508zm-16.384-32.613c3.302-2.223 6.984-3.715 10.89-4.89 2.319-.381 6.035-1.091 6.701 1.588.668 7.239.573 14.639.985 21.943.275 4.868.867 9.307 1.924 14.088.312 1.415 1.084 4.472.13 5.906-.363.546-.976.857-1.957.753-4.478-.474-9.128-4-12.603-6.616-4.008-3.021-7.846-6.327-11.629-9.622-2.223-1.939-4.826-4.033-5.334-6.924-.318-1.556.762-3.333 1.27-4.827.345-.578 1.478-2.624 2.888-4.433 2.225-2.856 5.141-5.839 6.735-6.966" fill="#82d4bd" transform="matrix(1.1146666388 0 0 -1.1146666388 27.65460935052 124.70795898654)"/><path d="m0 0c-1.551-.946-2.11-3.117-1.858-4.83.336-2.305 2.782-3.198 4.821-2.727 2.332.539 3 2.778 2.976 4.904-.006.454-.115.868-.304 1.236-.942 1.818-3.848 2.505-5.635 1.417" fill="#d39e6b" transform="matrix(1.22753605998 0 0 -1.17646132526 83.15641286964 103.13869339244)"/><path d="m0 0c-.721-.949-3.228-.319-3.695.659-.465.966.791 2.536 1.619 2.841.765.284 1.976.243 2.443-.533.076-.128.139-.277.188-.443.248-.841.127-2.069-.555-2.524zm-2.111 4.427c-1.287-.461-2.076-1.506-2.409-2.817-.32-1.259.549-2.162 1.67-2.546 1.311-.446 2.473-.56 3.612.333 1.156.906 1.16 2.351.543 3.483-.653 1.203-2.002 2.055-3.416 1.547" fill="#d39e6b" transform="matrix(1.1146666388 0 0 -1.1146666388 129.07143678843 108.51185272478)"/><path d="m0 0c-.467.776-1.678.817-2.443.533-.828-.305-2.084-1.875-1.619-2.841.467-.978 2.974-1.608 3.695-.659.682.455.803 1.683.555 2.524-.049.166-.112.315-.188.443" fill="#d39e6b" transform="matrix(1.31307588184 0 0 -1.29867651687 130.01081196494 104.82571601693)"/><path d="m0 0c-.003-.002-.007-.004-.01-.006 0-.001 0-.002 0-.003.003.003.007.006.01.009" fill="#009f95" transform="matrix(1.1146666388 0 0 -1.1146666388 195.58248045899 105.43091413514)"/><path d="m0 0c2.35.54 4.446 1.906 6.541 2.826 2.537 1.648 5.547 2.888 7.549 4.946v.003c-4.507-2.824-9.299-4.855-14.09-7.012-.222-.159-.222-.604 0-.763" fill="#009f95" transform="matrix(1.1146666388 0 0 -1.1146666388 179.86568085191 114.10413525164)"/><path d="m0 0c-.629-2.961-.707-4.683-1.502-6.494.181-.155.405.26.398.201.805 2.27 1.429 4.383 1.944 6.746 1.336 6.107 2.357 9.969 4.009 15.622.032.318-.236.221-.541.254-.97.142-.714-.1-.843-.508-.668-2.317-1.571-5.049-1.918-7.431-.541-3.081-.899-5.343-1.547-8.39" fill="#009f95" transform="matrix(1.1146666388 0 0 -1.1146666388 44.41362226487 128.30498822995)"/><path d="m0 0c-.014-.041-.027-.08-.041-.121.03.077.039.107.041.121" fill="#009f95" transform="matrix(1.1146666388 0 0 -1.1146666388 43.18303029564 135.31958538792)"/><path d="m0 0c.023.007.026.013 0 0" fill="#009f95" transform="matrix(1.1146666388 0 0 -1.1146666388 27.70811334918 124.67340432074)"/><path d="m0 0c-.443-.188-.539-.409-1.176-.901-3.556-3.463-8.478-7.772-12.193-11.71.209-.438.414-.461.498-.445 4.687 4.434 8.467 8.381 13.602 12.312-.223.254-.571.839-.731.744" fill="#009f95" transform="matrix(1.1146666388 0 0 -1.1146666388 42.03157965776 110.12477535112)"/><path d="m0 0c.023.017.038.025.048.031-.005-.003-.011-.003-.021-.004-.009-.009-.018-.018-.027-.027" fill="#009f95" transform="matrix(1.1146666388 0 0 -1.1146666388 27.65460935052 124.70795898654)"/><path d="m0 0c-.753-1.745-1.623-2.918-2.414-6.431.414-.351.348.144.315-.238 1.303 3.652 2.441 5.274 4.566 9.207 3.071 5.986 4.955 9.05 7.782 13.433-.127.604-.858.126-1.239.064-1.588-2.096-3.205-4.258-4.414-6.638-2.365-4.651-3.166-6.577-4.596-9.397" fill="#009f95" transform="matrix(1.1146666388 0 0 -1.1146666388 34.90774516919 128.15562290035)"/><path d="m0 0c1.047-1.808 3.016-2.318 4.635-3.27 1.701-.703 6.418-2.512 11.525-4.41 2.807-1.044 8.85-3.281 15.227-5.133 7.15-2.079 14.722-3.756 18.629-4.341 6.884-1.03 13.439-1.056 15.812-1.041.031 4.414 2.096 16.099 2.223 17.371-1.08-.699-2.223-1.303-3.27-2.128-1.336-.626-7.736-4.237-10.097-4.86-5.157-1.358-7.106.73-8.29 3.017-1.619 2.763-4.066 9.94-4.033 10.671-1.597.523-5.941 1.472-10.812 3.136-5.86 2-12.483 4.82-16.012 6.349-5.889 2.549-11.49 5.641-13.41 7.217-.256-.648-1.182-5.782-1.609-11.016-.42-5.127-.342-10.352-.518-11.562" fill="#2d7ac8" transform="matrix(1.1146666388 0 0 -1.1146666388 53.32426534877 135.43774005163)"/><path d="m0 0c-1.269-.273-2.478-.352-3.759-.352-1.315 0-2.61-.307-3.934-.261-1.422.049-2.838.203-4.258.291-.574.037-2.506.353-2.888-.251-.184-.289 2.437-.74 2.638-.775 1.682-.299 2.578-.126 4.276-.261 2.341-.186 3.652.079 5.877.314 1.287.134 4.496.692 5.476 1.512-.875.159-2.826-.087-3.428-.217" fill="#009f95" transform="matrix(1.1146666388 0 0 -1.1146666388 195.28374979979 115.87422587405)"/><path d="m0 0c-1.808-1.209-3.714-2.542-5.714-3.495.49-3.412 1.228-6.309-.36-10.545-.822-2.192-.74-2.961-2.785-4.301-1.472-.966-3.979-.688-5.47-.144-2.281.833-4.338 1.692-6.629 2.542 2.287-3.049 3.272-6.859 4.414-10.512.256-1.173.668-2.413.86-3.556.062-1.016.094-1.525.062-2.381 1.112.345 7.345 2.961 10.767 4.884 3.797 2.134 7.935 5.255 8.414 5.636.529.425-.318 5.293-.953 7.94-.447 1.868-2.414 13.423-2.606 13.932" fill="#2d7ac8" transform="matrix(1.1146666388 0 0 -1.1146666388 169.74004910505 116.82726585023)"/><path d="m0 0c2.059.971 2.886 4.901 3.151 6.182.533 2.576.287 5.194.164 6.066-.069.438-.006.188-.158.889-5.7-3.268-11.745-5.335-17.946-7.392.066.022 3.129-2.702 6.769-4.157 1.864-.744 5.625-2.716 8.02-1.588" fill="#2d7ac8" transform="matrix(1.1146666388 0 0 -1.1146666388 158.75389471303 136.07421470239)"/><path d="m0 0c3.598-.423 8.082 2.464 9.607 3.224 3.201 1.592 6.354 3.367 9.084 5.796.753.619.585.671.823.809.06.035.266.398.384.398-1.427-.031-6.39-.356-11.754-.02-5.607.353-11.65 1.385-14.539 2.148.116-.283.438-3.582 1.858-6.737 1.295-2.88 2.207-4.982 4.537-5.618" fill="#2d7ac8" transform="matrix(1.1146666388 0 0 -1.1146666388 109.75872260458 143.09549986019)"/><path d="m0 0c.59.656.889 1.567 1.307 2.33.006.013.013.024.019.037.078.14-1.39 1.667-1.49 1.827.149-.236-3.367-1.101-3.66-1.144-1.088-.154-1.795-.054-2.84.244-.387-1.151-1.217-2.164-.125-3.194 1.998-1.881 4.873-2.236 6.789-.1" fill="#edad09" transform="matrix(1.1146666388 0 0 -1.1146666388 141.41971381306 134.94394273064)"/><path d="m0 0c2.274.338.385 6.184-.031 7.304-.514 1.38-2.412 6.844-3.029 8.105-.077.156-.153.311-.231.467-.609 1.215-1.281 2.403-2.197 3.41-.35-.253-.254-.73-.477-1.047.827-2.255 3.303-11.972 3.651-14.48.131-.924 1.097-3.94 2.314-3.759" fill="#edad09" transform="matrix(1.1146666388 0 0 -1.1146666388 150.05615093048 154.64567557143)"/><path d="m0 0c-.38-2.515-.72-5.043-1.08-7.575-.156-1.105.227-5.39 2.182-3.88 1.236.955.934 3.61.869 4.928-.1 2.065-.055 10.727-.32 13.05.062.775-.127 1.619 0 2.509-.678-2.986-1.192-6-1.651-9.032" fill="#edad09" transform="matrix(1.1146666388 0 0 -1.1146666388 129.42590077957 144.48883315869)"/><path d="m0 0c2.211.07 10.957.944 12.531 1.803.355.194-.707 3.955-.715 3.986-.445 1.557-2.258 10.153-3.146 12.789-1.399-1.939-4.002-2.383-6.256-1.684-1.112.222-1.557 1.302-2.51 1.841.033-6.16.285-12.701.096-18.735" fill="#2d7ac8" transform="matrix(1.1146666388 0 0 -1.1146666388 132.89474335951 156.22627286525)"/><path d="m0 0c-.508-.953-.73-1.905-2.064-1.842-.666.158-1.399.285-1.842.762-.654-.085-3.947-1.002-7.113-1.425-3.243-.434-6.35-.375-6.35-.375s-1.059-1.482-2.738-1.372c-1.02.069-1.201 1.009-1.867 1.426-.715.449-11.028.499-14.991.922-3.683.393-15.273 3.207-17.146 3.808-10.639 3.208-21.086 6.828-31.248 11.115-.635.096-3.049 1.843-3.588 2.065.062-.795.381-6.924.221-9.368.013-3.621-1.575-4.997-3.325-5.385-3.994-.887-8.976.69-12.521 2.336-3.342 1.553-6.317 4.064-7.779 5.017-.446-.54-1.047-1.112-1.207-1.809-1.981-6.088 7.668-9.453 11.877-10.384 2.363-.523 4.814-.767 7.099-1.601 2.547-.93 4.088-2.666 5.793-4.655 2.477-2.89 5.686-6.033 9.686-6.096.761.03 6.216-.022 8.384.431 3.248.683 5.782 1.391 7.938.954 1.711-.347 2.851-.926 4.34-1.8 1.422-.833 3.369-1.845 4.976-2.223 3.598-.847 5.928-1.271 8.891-.952 1.506.161 6.182 1.151 7.609 1.462 5.272 1.143 8.586 4.571 15.785 2.772 3.176-.954 8.729-2.857 11.749-2.857 2.33 0 5.927 0 8.468.952 1.795.673 5.592 4.311 6.627 5.489 1.911 2.178 4.103 4.894 6.923 5.74 3.492 1.049 10.484-.668 12.912-.009 2.012.211 3.526 1.154 4.445 1.853.922.54 1.715 1.651 1.047 2.667-1.015 1.429-7.683 10.289-10.795 12.957-2.73-1.684-5.398-3.557-8.097-5.399-3.811-2.255-7.749-4.256-12.099-5.176" fill="#ee2722" transform="matrix(1.1146666388 0 0 -1.1146666388 152.00904688166 154.27895024727)"/><path d="m0 0c-3.4.659-6.699 1.758-10.076 2.52-3.613.811-6.85-.247-10.299-1.327-3.057-.957-6.117-1.974-9.309-2.364-3.046-.373-4.572-.307-7.63-.054-2.541.212-5.504.954-7.622 1.905-2.699 1.215-4.191 2.099-5.453 2.403-4.699 1.144-8.414-1.396-13.338-1.078.731-1.08 9.041-5.295 12.756-7.042 4.024-1.692 10.397-3.811 13.446-4.232 3.068-.423 7.283-.855 8.806-.923 1.78-.08 10.352.287 15.803 1.4 3.527.721 7.072 1.391 10.488 2.5 1.481.481 7.403 2.918 8.819 3.724 1.841 1.047 4.095 2.286 5.621 3.589-1.684-1.303-3.907-1.24-6.002-1.525-2.018-.093-4.031.119-6.01.504" fill="#feefad" transform="matrix(1.1146666388 0 0 -1.1146666388 137.66440190694 177.00811767904)"/><path d="m0 0c.233-.024.469-.047.706-.069.713-.065 1.443-.113 2.16-.107.607.004 1.203.055 1.779.157-1.483-.264-3.123-.138-4.645.019" fill="#fbbf15" transform="matrix(1.1146666388 0 0 -1.1146666388 133.66274867365 37.97463315488)"/><path d="m0 0c-.619-.121-1.113-.346-1.656-.612-.181-.09-.368-.182-.566-.278.795.383 1.397.729 2.222.888z" fill="#fbbf15" transform="matrix(1.1146666388 0 0 -1.1146666388 89.99233909874 53.89318742358)"/><path d="m0 0c-1.192.617-2.346 1.362-3.305 2.392.639-.686 1.365-1.247 2.131-1.727.383-.24.776-.461 1.174-.667.818-.425 2.539-1.359 3.639-1.127-1.1-.232-2.821.702-3.639 1.129" fill="#fbbf15" transform="matrix(1.1146666388 0 0 -1.1146666388 109.85012526896 37.75169982712)"/><path d="m0 0c.785-.77 1.542-1.427 2.623-2.026 1.527-.845 3.139-1.346 4.816-1.659-1.677.313-3.289.814-4.816 1.66-1.081.599-1.838 1.255-2.623 2.025" fill="#fbbf15" transform="matrix(1.1146666388 0 0 -1.1146666388 113.57534117583 33.83476125837)"/><path d="m0 0c1.477-2.07 2.59-2.626 4.281-3.233 1.975-.71 3.998-1.205 5.971-.651.814.227 2.119.456 3.135 1.1.871.556 1.597.92 1.824 1.111 1.032.874 1.617.659 1.269 1.958-.825-.159-1.427-.505-2.222-.888-2.985-.92-7.145-.889-9.305 1.905-.648 1.088-1.756 1.947-1.641 5.759-.003.635.204 2.167 1.075 3.768 1.119 2.055 3.199 4.466 3.89 5.017 2.594 2.17 5.16 3.149 8.047 3.494 2.858.369 6.416-.762 7.016-1.143 2.096-.477 3.842-1.937 5.717-3.113.062-.02.13-.041.2-.061.209-.063.438-.117.644-.106.275.016.505.151.585.548-.414.985-.922 1.97-1.525 2.891.079.103.174.169.277.204.102.036.211.042.318.025.213-.031.421-.15.547-.293.271-.413.569-.788.887-1.132.959-1.03 2.113-1.775 3.305-2.392.818-.427 2.539-1.361 3.639-1.129.157.033.301.09.429.176 1.754 1.182-1.791 3.583-2.373 4.456-.781 1.173-.15 1.82.84.82.28-.283.545-.553.807-.809.785-.77 1.542-1.426 2.623-2.025 1.527-.846 3.139-1.347 4.816-1.66.56-.104 1.126-.187 1.699-.255.414-.05 2.479-.31 2.635.135.207.589-2.988 1.854-3.365 2.29-.341.261-2.635 1.849-2.251 2.652.025.053.063.104.114.15.036.033.078.056.123.071.045.014.095.02.147.018.736-.028 2.115-1.579 2.427-1.854 1.311-1.154 2.448-1.521 4.071-2.08 1.402-.484 2.808-.929 4.293-1.084.225-.023.456-.049.689-.072 1.522-.157 3.162-.283 4.645-.019.105.019.213.032.316.056 2.928.652.598 2.009-1.287 2.797-.627.261-1.206.462-1.523.55-2.034.574-4.383.495-6.325 1.307.186 1.939 4.744.097 5.76-.062.494-.078 1.002-.12 1.514-.129 1.536-.028 3.109.254 4.494.853.111.049.219.102.318.158 1.5.852 1.588 2.534-.504 2.585-1.127.029-2.266-.208-3.404-.332-.38-.041-.759-.069-1.137-.071-5.652-.031-11.082 1.746-16.607 2.89.57-.603 1.682-.635 2.223-1.461-1.362.303-5.067 1.284-8.955 1.291-1.889.003-3.819-.032-5.547-.293-2.188-.333-4.051-.933-5.092-1.22.73 1.365 2.349 1.65 3.652 2.128-.021.411-.127.762-.285 1.08-.866.126-2.103.162-3.524.12-2.369-.071-5.25-.359-7.781-.807-2.393-.425-4.473-1.06-5.506-1.458-.344-.132-.572-.239-.656-.301-1-.223-3.303-1.746-5.168-3.588s-3.295-4.001-3.818-4.859c-.379-.771-1.619-3.161-2.221-5.803-.713-3.125-.721-6.604-.066-8.168.127-.764.424-1.247.826-1.812" fill="#fbbf15" transform="matrix(1.1146666388 0 0 -1.1146666388 71.62263289132 54.21309674891)"/><path d="m0 0-.038-.01-.099-.788.139.709c-.004.019-.003.053-.002.089" fill="#b20d35" transform="matrix(1.1146666388 0 0 -1.1146666388 124.30846624084 210.74015747574)"/><path d="m0 0c.638.221 3.925.053 4.299.755-.375-.702-3.657-.534-4.299-.755" fill="#b20d35" transform="matrix(1.1146666388 0 0 -1.1146666388 124.16467424443 218.33103728597)"/><path d="m0 0c-1.342-.134-2.591.585-3.668 1.417 1.077-.832 2.326-1.551 3.668-1.417" fill="#b20d35" transform="matrix(1.1146666388 0 0 -1.1146666388 135.76946862098 211.91167211312)"/><path d="m0 0c1.449.997 2.371 2.72 2.687 3.561-.318-.841-1.24-2.564-2.687-3.561" fill="#b20d35" transform="matrix(1.1146666388 0 0 -1.1146666388 139.91602851731 216.86636532258)"/><path d="m0 0c.109.129.27.161.46.13-.191.031-.351-.001-.46-.13" fill="#b20d35" transform="matrix(1.1146666388 0 0 -1.1146666388 128.8607647937 215.6747866857)"/><path d="m0 0-.075-.012c-.029-.044-.05-.092-.079-.136z" fill="#b20d35" transform="matrix(1.1146666388 0 0 -1.1146666388 130.83706874429 209.33121884429)"/><path d="m0 0c.795 1.27.984 3.144.223 4.574-.413.381-.858.499-1.319.491.461.008.905-.111 1.317-.491.764-1.43.572-3.304-.221-4.574" fill="#b20d35" transform="matrix(1.1146666388 0 0 -1.1146666388 142.91113777577 212.89703742182)"/><path d="m0 0c.244.456-.413 1.237-.086 1.628-.327-.391.328-1.172.086-1.628" fill="#b20d35" transform="matrix(1.1146666388 0 0 -1.1146666388 128.95662612463 217.48946397367)"/><path d="m0 0c-1.268-.871-2.939-1.187-3.69-1.145.75-.042 2.423.274 3.69 1.145" fill="#b20d35" transform="matrix(1.1146666388 0 0 -1.1146666388 139.91602851731 216.86636532258)"/><path d="m0 0-1.414-.237-1.641-.422-1.433-.484c0 .003.001.014 0 .019l-.139-.709-.002-.015c0-.331-.117-.955-.223-2.436l.051-1.218c-.051-.9.178-1.947.182-2.343.642.221 3.924.053 4.299.755.242.456-.413 1.237-.086 1.628.109.129.269.161.46.13.19-.032.409-.126.633-.25.565-.312 1.162-.811 1.403-.951 1.056-.614 2.236-1.085 3.472-1.104.065-.021.154-.033.26-.039.751-.042 2.422.274 3.69 1.145 1.447.997 2.369 2.72 2.687 3.561.793 1.27.985 3.144.221 4.574-.412.38-.856.499-1.317.491-.461-.007-.936-.142-1.412-.269-1.652-.605-2.16-2.445-3.144-3.746-.255-.088-.506-.142-.755-.166-1.342-.134-2.591.585-3.668 1.417-.319.246-.626.5-.912.748l-.001-.001.001.001h-.001l.002.002c.029.044.05.092.079.136l-.12-.02z" fill="#b20d35" transform="matrix(1.1146666388 0 0 -1.1146666388 129.31331944905 209.58647750458)"/><path d="m0 0c.242-.381.213-.897.039-1.376.174.479.205.995-.037 1.376-.197.309-1.643 1.414-2.264 1.543.622-.129 2.066-1.234 2.262-1.543" fill="#f68c11" transform="matrix(1.1146666388 0 0 -1.1146666388 142.86989511013 35.8868625404)"/><path d="m0 0c-2.267-.016-4.537.048-6.788.329-4.802.599-10.019 2.233-11.798 2.758 1.779-.525 6.995-2.159 11.797-2.758 2.251-.281 4.521-.345 6.789-.329" fill="#f68c11" transform="matrix(1.1146666388 0 0 -1.1146666388 139.31076453245 27.84900140802)"/><path d="m0 0c.18-.404.115-.821-.066-1.2.181.379.248.796.068 1.2-.445 1.005-2.127 1.182-3.654 1.173 1.526.009 3.209-.168 3.652-1.173" fill="#f68c11" transform="matrix(1.1146666388 0 0 -1.1146666388 145.91962303389 29.06510271095)"/><path d="m0 0c1.121.603 2.387 1.061 3.48 1.753-1.094-.692-2.361-1.15-3.482-1.753z" fill="#f68c11" transform="matrix(1.1146666388 0 0 -1.1146666388 140.11555384566 34.17807858312)"/><path d="m0 0h.001z" fill="#f68c11" transform="matrix(1.1146666388 0 0 -1.1146666388 138.97970854072 39.77036110998)"/><path d="m0 0c-.546-.012-1.105-.032-1.675-.071-1.053-.071-2.085-.162-3.045-.267.96.105 1.992.196 3.045.267.57.039 1.129.059 1.675.071" fill="#f68c11" transform="matrix(1.1146666388 0 0 -1.1146666388 97.31569891566 22.92663353108)"/><path d="m0 0c-.613-.288-1.701-.722-2.135-.758.433.035 1.523.47 2.135.758" fill="#f68c11" transform="matrix(1.1146666388 0 0 -1.1146666388 141.54567114324 38.95442513038)"/><path d="m0 0c-.684.001-1.744.043-2.986.048 1.242-.005 2.302-.047 2.986-.048" fill="#f68c11" transform="matrix(1.1146666388 0 0 -1.1146666388 102.13886146174 22.96453219679)"/><path d="m0 0c.602 2.642 1.842 5.032 2.221 5.803.523.858 1.953 3.017 3.818 4.859s4.168 3.365 5.168 3.588c.084.062.312.169.656.301 1.032.398 3.112 1.033 5.506 1.458 2.531.448 5.412.736 7.781.807 1.421.042 2.658.006 3.524-.12.158-.318.264-.669.285-1.08-1.303-.478-2.922-.763-3.652-2.128 1.041.287 2.904.887 5.092 1.22 1.728.261 3.658.296 5.547.293 3.888-.007 7.593-.988 8.955-1.291-.541.826-1.653.858-2.223 1.461 5.525-1.144 10.955-2.921 16.607-2.89.378.002.757.03 1.137.071 1.138.124 2.277.361 3.404.332 2.094-.051 2.004-1.733.504-2.585-.099-.056-.207-.109-.318-.158-1.384-.599-2.957-.881-4.494-.853-.512.009-1.02.051-1.514.129-1.016.159-5.574 2.001-5.76.062 1.942-.812 4.291-.733 6.325-1.307.317-.088.896-.289 1.523-.55 1.885-.788 4.215-2.145 1.287-2.797-.668-.149-1.376-.207-2.095-.213-.717-.006-1.447.042-2.16.107-.237.022-.473.045-.706.069-.233.023-.464.049-.689.072-1.108.115-2.172.393-3.223.727-.358.114-.715.234-1.07.357-1.623.559-2.76.926-4.071 2.08-.313.275-1.692 1.826-2.427 1.854-.052.002-.102-.004-.147-.018-.045-.015-.087-.038-.123-.071-.051-.046-.089-.097-.114-.15-.384-.803 1.911-2.391 2.251-2.652.377-.436 3.572-1.701 3.365-2.29-.156-.445-2.221-.185-2.635-.135-.573.068-1.139.151-1.699.255-1.677.313-3.289.814-4.816 1.659-1.442.799-2.307 1.7-3.43 2.835-.99 1-1.621.353-.84-.82.582-.873 4.127-3.274 2.373-4.456-.128-.086-.272-.143-.429-.176-1.1-.232-2.821.702-3.639 1.127-.398.206-.791.427-1.174.667-1.148.721-2.208 1.621-3.018 2.859-.126.143-.334.262-.547.293-.107.017-.216.011-.318-.025-.103-.035-.198-.101-.277-.204.603-.921 1.111-1.906 1.525-2.891-.08-.397-.31-.532-.585-.548-.206-.011-.435.043-.644.106-.07.02-.138.041-.2.061-1.875 1.176-3.621 2.636-5.717 3.113-.6.381-4.158 1.512-7.016 1.143-2.887-.345-5.453-1.324-8.047-3.494-.691-.551-2.771-2.962-3.89-5.017-.871-1.601-1.078-3.133-1.075-3.768-.115-3.812.993-4.671 1.641-5.759 2.16-2.794 6.32-2.825 9.305-1.905.198.096.385.188.566.278.543.266 1.037.491 1.656.612.088-.325.117-.556.094-.733-.055-.441-.427-.544-.998-.945-.113-.08-.236-.172-.365-.282-.227-.191-.953-.555-1.824-1.111-1.016-.645-2.321-.873-3.135-1.1-1.973-.554-3.996-.059-5.971.651-1.691.607-2.804 1.163-4.281 3.233-.402.565-.699 1.048-.826 1.812-.655 1.564-.647 5.043.066 8.168zm-2.351-7.789 1.193-1.904c.225-.447.811-1.391 1.252-1.747 1.492-2.35 4.191-3.683 6.922-4.034l1.08-.062c3.906.032 7.621 1.873 10.289 4.858.35.571.254 1.238.062 1.841-.036.032-.072.071-.107.116-.18.221-.366.555-.59.576-.09.009-.184-.033-.287-.151-1.969-.731-3.873-2.255-6.098-1.778l-.951.274c-.465-.21-2.011.582-2.804 1.375-.797.798-1.164 1.649-1.577 2.689-.605 1.529-.564 3.166 0 4.699.87 2.356 2.69 4.633 4.635 6.206 1.334 1.079 2.955 1.889 4.563 2.338.853.238 1.617.331 2.326.342 1.181.022 2.209-.18 3.24-.299l1.018-.318c.013.011.048.017.103.016.384-.003 1.726-.305 3.545-1.151 1.065-.497 1.914-1.392 2.983-1.855.392-.17.757-.28 1.091-.348.333-.066.635-.089.903-.088.533.006.923.116 1.14.193.875.313.744.978.905 1.105.005.005.111-.067.269-.18.473-.338 1.415-1.04 1.549-1.106 1.997-.975 3.797-1.574 4.969-1.576.168 0 .322.012.463.037.73.129 1.916 1.283 1.64 2.445 1.654-.802 3.449-1.337 5.274-1.575.791-.102 1.714-.24 2.604-.219.89.023 1.745.205 2.401.742 1.184.968 2.618-.553 3.979-.409.234.025.473.028.713.015.085-.005.17-.02.256-.028.155-.016.309-.031.464-.059.098-.017.194-.044.292-.066.141-.031.282-.063.421-.103.097-.028.19-.061.286-.092.136-.045.273-.089.405-.139.024-.01.05-.018.075-.027.791-.307 2.639.212 2.643.213h.002c.026-.025.084-.032.165-.026.434.036 1.522.47 2.135.758.192.09.348.17.409.214.328.239.644.682.818 1.162.174.479.203.995-.039 1.376-.196.309-1.64 1.414-2.262 1.543-.088.017-.16.016-.209-.01 0 0-.001 0-.002 0 1.121.603 2.388 1.061 3.482 1.753.311.198.616.406.891.652.287.258.587.601.77.982.181.379.246.796.066 1.2-.443 1.005-2.126 1.182-3.652 1.173-.915-.006-1.775-.079-2.275-.082 0 0-.001 0-.002 0-2.268-.016-4.538.048-6.789.329-4.802.599-10.018 2.233-11.797 2.758l-.432-1.476s-.413.11-1.054.263c.007-.052.023-.087.058-.089-1.145.063-2.477.783-4.699.783-1.301.108-2.311.174-3.326.137-2.403-.203-4.346-.719-4.346-.719l-.522 2.403c-.121-.006-.269-.008-.441-.007-.684.001-1.744.043-2.986.048-.427.002-.879-.004-1.341-.014-.546-.012-1.105-.032-1.675-.071-1.053-.071-2.085-.162-3.045-.267-.639-.07-1.246-.145-1.806-.224-.838-.118-1.569-.245-2.139-.371-1.772-.392-3.492-.714-6.85-2.582-2.773-1.544-5.351-4.385-7.488-8.197-2.055-3.669-2.779-7.814-2.842-9.495-.285-2.113.35-3.145-.316-4.67" fill="#f68c11" transform="matrix(1.1146666388 0 0 -1.1146666388 70.77548624583 43.08872369369)"/><path d="m0 0c1.015.037 2.025-.029 3.326-.137 2.222 0 3.554-.72 4.699-.783-.035.002-.051.037-.058.089-1.351.321-3.731.831-5.481.898-.843.032-1.69-.001-2.486-.067" fill="#f68c11" transform="matrix(1.1146666388 0 0 -1.1146666388 108.05662664713 24.83382815006)"/><path d="m0 0c-1.016-.644-2.321-.873-3.135-1.1.814.227 2.119.455 3.135 1.1" fill="#f68c11" transform="matrix(1.1146666388 0 0 -1.1146666388 86.54467518493 57.31632867133)"/><path d="m0 0c.571.401.943.504.998.945-.055-.441-.427-.544-.998-.945" fill="#f68c11" transform="matrix(1.1146666388 0 0 -1.1146666388 88.98468045726 55.76359804348)"/><path d="m0 0c-1.108.115-2.172.393-3.223.727 1.051-.334 2.115-.612 3.223-.727" fill="#f68c11" transform="matrix(1.1146666388 0 0 -1.1146666388 132.89474335951 37.89437715688)"/><path d="m0 0c-1.031.119-2.059.321-3.24.299 1.18.022 2.209-.18 3.24-.299" fill="#f68c11" transform="matrix(1.1146666388 0 0 -1.1146666388 93.95720833295 34.67299057075)"/><path d="m0 0c-.132.05-.269.094-.405.139.136-.045.273-.089.405-.139" fill="#f68c11" transform="matrix(1.1146666388 0 0 -1.1146666388 135.95004461646 39.9776891048)"/><path d="m0 0c-.268-.001-.57.022-.903.088.333-.066.635-.089.903-.088" fill="#f68c11" transform="matrix(1.1146666388 0 0 -1.1146666388 104.7059387309 38.84630246642)"/><path d="m0 0c.14-.031.282-.063.421-.103-.139.04-.28.072-.421.103" fill="#f68c11" transform="matrix(1.1146666388 0 0 -1.1146666388 134.71053531412 39.60539044744)"/><path d="m0 0c.155-.016.309-.031.464-.059-.155.028-.309.043-.464.059" fill="#f68c11" transform="matrix(1.1146666388 0 0 -1.1146666388 133.86784733519 39.46605711759)"/><path d="m0 0c.234.025.473.028.713.015-.24.013-.479.01-.713-.015" fill="#f68c11" transform="matrix(1.1146666388 0 0 -1.1146666388 132.78773536219 39.45156645129)"/><path d="m0 0c1.654-.802 3.449-1.337 5.274-1.575-1.825.238-3.62.773-5.274 1.575" fill="#f68c11" transform="matrix(1.1146666388 0 0 -1.1146666388 116.89481842618 37.823038492)"/><path d="m0 0c-.89-.021-1.813.117-2.604.219.791-.102 1.714-.24 2.604-.219" fill="#f68c11" transform="matrix(1.1146666388 0 0 -1.1146666388 125.67616220664 39.82275044201)"/><path d="m0 0c.384-.003 1.727-.305 3.545-1.151-1.819.846-3.161 1.148-3.545 1.151" fill="#f68c11" transform="matrix(1.1146666388 0 0 -1.1146666388 95.20674963505 35.00961989567)"/><path d="m0 0c1.065-.497 1.914-1.392 2.983-1.855-1.069.463-1.918 1.358-2.983 1.855" fill="#f68c11" transform="matrix(1.1146666388 0 0 -1.1146666388 99.15824286959 36.29260119693)"/><path d="m0 0c.103.118.197.16.287.151-.09.009-.184-.033-.287-.151" fill="#f68c11" transform="matrix(1.1146666388 0 0 -1.1146666388 90.24090975919 52.33599812917)"/><path d="m0 0c-1.172.002-2.972.601-4.969 1.576-.134.066-1.076.768-1.549 1.106.473-.338 1.415-1.04 1.549-1.106 1.998-.976 3.798-1.574 4.969-1.576" fill="#f68c11" transform="matrix(1.1146666388 0 0 -1.1146666388 114.55067448478 40.5896410895)"/><path d="m0 0c.088-.325.117-.554.094-.731.023.177-.006.408-.094.733 0-.001 0-.001 0-.002" fill="#f68c11" transform="matrix(1.1146666388 0 0 -1.1146666388 89.99233909874 53.89541675686)"/><path d="m0 0c.719.006 1.427.064 2.095.213-.103-.024-.211-.037-.316-.056-.576-.102-1.172-.153-1.779-.157" fill="#f68c11" transform="matrix(1.1146666388 0 0 -1.1146666388 136.85738326045 38.1708144833)"/><path d="m0 0c.045.014.095.02.147.018-.052.002-.102-.004-.147-.018" fill="#f68c11" transform="matrix(1.1146666388 0 0 -1.1146666388 120.70251966432 32.32104396288)"/><path d="m0 0c.102.036.211.042.318.025-.107.017-.216.011-.318-.025" fill="#f68c11" transform="matrix(1.1146666388 0 0 -1.1146666388 104.21325607655 33.52488393279)"/><path d="m0 0c.377-.436 3.572-1.701 3.365-2.29.207.589-2.988 1.854-3.365 2.29-.34.261-2.635 1.849-2.251 2.652-.384-.803 1.91-2.391 2.251-2.652" fill="#f68c11" transform="matrix(1.1146666388 0 0 -1.1146666388 122.94745827486 35.52348121615)"/><path d="m0 0c1.5.852 1.59 2.534-.504 2.585 2.092-.051 2.004-1.733.504-2.585" fill="#f68c11" transform="matrix(1.1146666388 0 0 -1.1146666388 142.48199111983 31.83170530845)"/><path d="m0 0c.158-.318.264-.669.285-1.08-.021.411-.127.762-.285 1.08" fill="#f68c11" transform="matrix(1.1146666388 0 0 -1.1146666388 102.73743744678 24.47824949229)"/><path d="m0 0c-.103-.024-.211-.037-.316-.056.105.019.213.032.316.056 2.928.652.598 2.009-1.287 2.797 1.885-.788 4.215-2.145 1.287-2.797" fill="#f68c11" transform="matrix(1.1146666388 0 0 -1.1146666388 139.19260986873 37.93339048924)"/><path d="m0 0c-1.385-.599-2.958-.881-4.494-.853 1.537-.028 3.11.254 4.494.853" fill="#f68c11" transform="matrix(1.1146666388 0 0 -1.1146666388 142.12752712869 32.00782263738)"/><path d="m0 0c-2.887-.345-5.453-1.324-8.047-3.494 2.594 2.17 5.16 3.149 8.047 3.494" fill="#f68c11" transform="matrix(1.1146666388 0 0 -1.1146666388 89.81845110309 32.65544395452)"/><path d="m0 0c3.888-.007 7.593-.988 8.955-1.291-1.362.303-5.067 1.284-8.955 1.291" fill="#f68c11" transform="matrix(1.1146666388 0 0 -1.1146666388 110.84329324413 26.36760944505)"/><path d="m0 0c-1.016-.644-2.321-.873-3.135-1.1.814.227 2.119.456 3.135 1.1" fill="#f68c11" transform="matrix(1.1146666388 0 0 -1.1146666388 86.54467518493 57.31632867133)"/><path d="m0 0c.275.016.505.151.585.548-.08-.397-.31-.532-.585-.548" fill="#f68c11" transform="matrix(1.1146666388 0 0 -1.1146666388 104.95228005807 37.58561449793)"/><path d="m0 0c.348-1.299-.237-1.084-1.269-1.958-.227-.191-.953-.555-1.824-1.111.871.556 1.597.92 1.824 1.111.129.11.252.202.365.282.571.401.943.504.998.945.023.177-.006.406-.094.731" fill="#f68c11" transform="matrix(1.1146666388 0 0 -1.1146666388 89.99233909874 53.89541675686)"/><path d="m0 0c.543.432 2.615 1.788 3.144 3.852.529 2.065.912 5.601 1.016 5.896.22 1.716 1.428 3.589 2.922 4.732l-1.018.318c-.857-.732-1.385-.891-2.191-2.381-2.159-4.489-.401-7.792-3.481-10.682-3.187-1.809-4.687-4.276-4.711-4.287l.951-.274c.731 1.237 2.256 2.033 3.368 2.826" fill="#d39e6b" transform="matrix(1.1146666388 0 0 -1.1146666388 87.19786983527 51.16782749171)"/><path d="m0 0-1.018.318z" fill="#d39e6b" transform="matrix(1.1146666388 0 0 -1.1146666388 95.09193897125 35.02745456189)"/><path d="m0 0c.572 4.922-1.489 10.105 1.494 14.702 2.541 3.916 9.343 6.997 10.478 13.124.289 1.56-.267 4.275-.316 7.198-.039 2.295.287 4.931.539 5.909l-1.08.062c-.096-.636-.57-4.721-.526-5.864.077-2.032.243-4.06.303-6.012-.072-.814-.562-3.081-2.096-5.102-1.693-2.24-4.084-3.946-5.185-4.764-1.377-1.059-2.436-1.481-4.024-4.657-1.316-2.633-1.021-5.971-.8-7.58.228-1.655.164-3.133-.002-4.77-.231-2.278-1.151-8.305-4.524-6.702l2.258-1.378c2.848 2.229 3.297 4.591 3.481 5.834" fill="#d39e6b" transform="matrix(1.1146666388 0 0 -1.1146666388 66.20646769339 106.03283412009)"/><path d="m0 0c-.012-.083-.418-1.296-.424-1.377-.265-.74-.001-.572-.632-.634h.001c.635.062.369-.107.635.634.006.081.41 1.294.424 1.377.06.427.028.196.24.485 0 .001-.001.001-.002.002-.213-.293-.182-.059-.242-.487" fill="#b20d35" transform="matrix(1.1146666388 0 0 -1.1146666388 92.76451502944 218.78359194132)"/><path d="m0 0c.594-.213 1.055-.284 1.462-.267-.407-.017-.866.054-1.458.267-.58.273-1.074.664-1.619 1.004v-.001c.544-.34 1.037-.73 1.615-1.003" fill="#b20d35" transform="matrix(1.1146666388 0 0 -1.1146666388 97.10502692092 214.41744271714)"/><path d="m0 0-.015.006-.001-.001.016-.006z" fill="#b20d35" transform="matrix(1.1146666388 0 0 -1.1146666388 88.24008314255 211.02551213527)"/><path d="m0 0 .088-1.066-.072-1.366c-.079-.401-.194-.819-.342-1.199-.262-.674-1.936-3.247-3.797-3.957-.772-.294-1.575-.396-2.324-.396.75 0 1.554.102 2.326.396 1.861.71 3.535 3.283 3.797 3.957.148.38.263.798.342 1.199l.072 1.366-.088 1.066c-.508.891-.141 1.947-2.125 2.224-.108.014-.221.017-.337.009.115.008.228.005.333-.009 1.986-.277 1.619-1.333 2.127-2.224" fill="#b20d35" transform="matrix(1.1146666388 0 0 -1.1146666388 106.87396534337 212.57824276312)"/><path d="m0 0c-.578.273-1.071.663-1.615 1.003-.039-.052-.076-.106-.115-.157l-1.317.37c-.656.218-1.023.369-1.746.593l-.65.241c-.016-.007-.033-.018-.049-.018-.096 0-.191 0-.287 0 .018.041.031.083.049.124l-2.229.823.008.063-.002.001v-.001l-.016.006c-.148-.581-2.417-5.748-2.539-6.478l-.064-1.017c1.747-.38 3.844-1.132 5.622-1.481.631.062.367-.106.632.634.006.081.412 1.294.424 1.377.06.428.029.194.242.487.001-.001.002-.001.002-.002 0 .001.001.001.002.002.668-1.015 1.639-1.844 2.754-2.32.182-.078 1.563-.582 3.211-.584.749 0 1.552.102 2.324.396 1.861.71 3.535 3.283 3.797 3.957.148.38.263.798.342 1.199l.072 1.366-.088 1.066c-.508.891-.141 1.947-2.127 2.224-.105.014-.218.017-.333.009-.812-.06-1.776-.665-2.108-1.471l-.383-.889c-.135-.74-.697-1.142-1.205-1.523-.383-.144-.738-.25-1.146-.267-.407-.017-.868.054-1.462.267" fill="#b20d35" transform="matrix(1.1146666388 0 0 -1.1146666388 97.10502692092 214.41744271714)"/><path d="m0 0c-.111-.407-.228-.811-.355-1.212.916.965 1.478 1.805 2.748 5.219 1.176 4.318 1.666 9.389.459 14.057-.254.351-.158.859-.381 1.207-.889-.253-1.842-.38-2.604-.761h.002c1.514-5.856 1.723-12.571.131-18.51" fill="#82d4bd" transform="matrix(1.1146666388 0 0 -1.1146666388 129.71348477238 207.97132554496)"/><path d="m0 0c.877-3.636.791-7.819.461-11.524.316.636.539 1.334.697 2.064.955 2.533 1.238 5.467 1.057 8.42-.219 3.526-1.102 7.077-2.295 9.999-.602.698-1.842.506-2.635 1.08.225-.163 1.025-3.412 1.269-4.125.663-1.947.967-3.928 1.446-5.914" fill="#82d4bd" transform="matrix(1.1146666388 0 0 -1.1146666388 89.37258444757 197.92706446273)"/><path d="m0 0c.316-.661.783-2.2.953-2.938.372-1.637.742-5.26.81-6.698.005-.097.007-.183.008-.258.032-1.264.002-2.528.043-3.793.018-.578-.38-2.251-.306-2.825.015-.114.127-.137.258-.136.13.001.28.025.369.01.056-.011.086-.04.072-.102.165.591.317 1.187.459 1.79.679 2.922 1.049 5.968 1.041 9.025-.002 1.019-.047 2.04-.137 3.057-.476 3.265-.476 4.16-1.365 5.875-1.08-.129-2-.699-3.145-.699h.002c.114 0 .819-2.063.938-2.308" fill="#82d4bd" transform="matrix(1.1146666388 0 0 -1.1146666388 126.01056219828 190.76198730852)"/><path d="m0 0 .315-.121c.476.308 1.503 2.765 1.702 3.14.609 1.149 2.258 5.417 2.502 6.264.654 2.281.961 4.669.9 7.042-.009.416-.132 4.043-.462 4.1-1.715.285-3.588.667-5.334 1.143 2.301-6.777 3.22-14.743.377-21.568" fill="#82d4bd" transform="matrix(1.1146666388 0 0 -1.1146666388 90.73136308026 211.98189611136)"/><path d="m0 0c-.005-.009-.008-.019-.012-.029l.287-.106c.014.004.025.004.04.014z" fill="#82d4bd" transform="matrix(1.1146666388 0 0 -1.1146666388 90.73136308026 211.98189611136)"/><path d="m0 0c1.576-3.961 2.098-8.261 1.854-12.524.056-.008.111-.029.168-.054.112-.051.226-.114.345-.109.061.002.121.022.184.069.131.271.22.571.292.88.14.594.196 1.224.218 1.788.254 3.303 0 6.637-.446 9.907-.572 2.254-1.173 4.574-2.445 6.478-1.047-.064-2.096-.412-3.049-.604h.002c.828-2.003 2.078-3.828 2.877-5.831" fill="#82d4bd" transform="matrix(1.1146666388 0 0 -1.1146666388 123.67645025664 195.53944852242)"/><path d="m0 0c-.883-3.597-2.661-8.077-4.801-10.939l1.854-.495c.654.693.78 1.123 1.519 2.305 1.133 1.815 2.17 3.712 3.016 5.716 1.713 4.057 2.826 8.184 2.111 12.613-1.238.572-2.382.128-3.652.604.51-3.049.811-6.438-.047-9.804" fill="#82d4bd" transform="matrix(1.1146666388 0 0 -1.1146666388 97.15964558622 200.14302174067)"/><path d="m0 0c.723-.224 1.09-.375 1.746-.593.056.054.1.104.149.156l-1.854.495c-.013-.018-.027-.04-.041-.058" fill="#b20d35" transform="matrix(1.1146666388 0 0 -1.1146666388 91.76242972115 212.40101076755)"/><path d="m0 0c-.043-.09-.086-.182-.131-.274.045.092.089.185.131.274" fill="#231f20" transform="matrix(1.1146666388 0 0 -1.1146666388 100.70428549761 204.23161897178)"/><path d="m0 0c-.024-.071-.049-.138-.073-.207.024.069.049.136.073.207" fill="#231f20" transform="matrix(1.1146666388 0 0 -1.1146666388 101.49681347779 202.2441683548)"/><path d="m0 0c-.05-.101-.101-.201-.153-.304.052.103.104.204.153.304" fill="#231f20" transform="matrix(1.1146666388 0 0 -1.1146666388 100.37991750572 204.9015336217)"/><path d="m0 0c-.065-.125-.13-.25-.199-.379.068.128.135.255.199.379" fill="#231f20" transform="matrix(1.1146666388 0 0 -1.1146666388 100.03325618105 205.58148027137)"/><path d="m0 0c-.031-.083-.065-.164-.097-.246.032.082.066.164.097.246" fill="#231f20" transform="matrix(1.1146666388 0 0 -1.1146666388 101.25938948373 202.91854167128)"/><path d="m0 0c-.107-.2-.209-.392-.326-.609l-.461-.794c-.47-.739-1.619-2.731-2.871-4.418l.002-.001c1.252 1.687 2.402 3.68 2.871 4.419l.461.794c.219.407.415.774.603 1.126-.09-.168-.18-.337-.277-.517z" fill="#231f20" transform="matrix(1.1146666388 0 0 -1.1146666388 99.38006153071 206.80872824069)"/><path d="m0 0c-.037-.087-.076-.174-.114-.26.038.086.077.174.114.26" fill="#231f20" transform="matrix(1.1146666388 0 0 -1.1146666388 100.99632815697 203.57508032153)"/><path d="m0 0c-.846-2.004-1.883-3.901-3.016-5.716-.739-1.182-.865-1.612-1.519-2.305l1.219-.325c.021-.014.041-.029.062-.042 1.252 1.687 2.401 3.679 2.871 4.418l.461.794c.117.217.219.409.326.609h.002c.097.18.187.349.277.517.036.069.073.138.108.205.069.129.134.254.199.379.054.104.107.207.158.306.052.103.103.203.153.304.054.11.108.22.16.327.045.092.088.184.131.274.051.111.099.22.148.329.038.086.077.173.114.26.048.114.093.229.139.343.032.082.066.163.097.246.049.131.095.264.14.398.024.069.049.136.073.207.066.206.131.418.191.637.635 2.319.887 4.479.983 7.019v1.237c.191.763-.03 1.534-.063 2.202l-1.303-.01c.715-4.429-.398-8.556-2.111-12.613" fill="#231f20" transform="matrix(1.1146666388 0 0 -1.1146666388 98.92973620864 203.94737897889)"/><path d="m0 0s.001-.001.002-.001v.001l-.002.001z" fill="#231f20" transform="matrix(1.1146666388 0 0 -1.1146666388 95.30261096598 213.29831741178)"/><path d="m0 0c.039.051.076.105.115.157-.001 0-.002.001-.002.001v.001c-.021.013-.041.028-.062.042l-1.219.325c-.049-.052-.093-.102-.149-.156z" fill="#b20d35" transform="matrix(1.1146666388 0 0 -1.1146666388 95.1766536358 213.47443474071)"/><path d="m0 0c-.158-.73-.381-1.428-.697-2.064l-.294-.681 1.052-.404c2.843 6.825 1.924 14.791-.377 21.568h-.922c1.193-2.922 2.076-6.473 2.295-9.999.181-2.953-.102-5.887-1.057-8.42" fill="#009f95" transform="matrix(1.1146666388 0 0 -1.1146666388 90.6633684153 208.47181086578)"/><path d="m0 0c.061-2.373-.246-4.761-.9-7.042-.244-.847-1.893-5.115-2.502-6.264-.199-.375-1.226-2.832-1.702-3.14l.198-.076.453-.121c2.14 2.862 3.918 7.342 4.801 10.939.858 3.366.557 6.755.047 9.804h-.857c.33-.057.453-3.684.462-4.1" fill="#009f95" transform="matrix(1.1146666388 0 0 -1.1146666388 96.77174159592 193.78496323295)"/><path d="m0 0-.198.076c-.015-.01-.026-.01-.04-.014l.65-.241c.014.018.028.04.041.058z" fill="#b20d35" transform="matrix(1.1146666388 0 0 -1.1146666388 91.30318706597 212.2014854392)"/><path d="m0 0-.019-.042 1.059-.391c.004.01.007.02.012.029z" fill="#009f95" transform="matrix(1.1146666388 0 0 -1.1146666388 89.55873377625 211.53157078929)"/><path d="m0 0h.287c.016 0 .033.011.049.018l-.287.106c-.018-.041-.031-.083-.049-.124" fill="#b20d35" transform="matrix(1.1146666388 0 0 -1.1146666388 90.6633684153 212.1524401071)"/><path d="m0 0c-.003.032-.007.065-.01.097.004-.032.007-.065.01-.097" fill="#231f20" transform="matrix(1.1146666388 0 0 -1.1146666388 88.29024314129 202.72904834268)"/><path d="m0 0c-.024.087-.05.173-.075.26.025-.087.051-.173.075-.26" fill="#231f20" transform="matrix(1.1146666388 0 0 -1.1146666388 87.06299517197 196.27847250395)"/><path d="m0 0c-.016.082-.033.163-.048.244.015-.081.032-.162.048-.244" fill="#231f20" transform="matrix(1.1146666388 0 0 -1.1146666388 87.79978982022 199.50766175655)"/><path d="m0 0 1.181-.453.294.681c.33 3.705.416 7.888-.461 11.524-.479 1.986-.783 3.967-1.446 5.914-.244.713-1.044 3.962-1.269 4.125l-2.922.761c.668-1.524 1.461-3.016 2-4.572l.668-1.843c.308-.875.577-1.757.822-2.646.025-.087.051-.173.075-.26.236-.876.437-1.761.613-2.653.015-.081.032-.162.048-.244.174-.919.318-1.85.43-2.793.003-.032.007-.065.01-.097.167-1.433.269-2.892.289-4.391z" fill="#231f20" transform="matrix(1.1146666388 0 0 -1.1146666388 88.24231247582 211.02662680191)"/><path d="m0 0-.008-.063 1.17-.432.019.042z" fill="#231f20" transform="matrix(1.1146666388 0 0 -1.1146666388 88.24231247582 211.02662680191)"/><path d="m0 0c-.071-.387-.143-.775-.228-1.16.085.385.157.773.228 1.16" fill="#231f20" transform="matrix(1.1146666388 0 0 -1.1146666388 134.17772466077 200.0003444109)"/><path d="m0 0c-.111-.347-.227-.692-.355-1.033.128.341.244.686.355 1.033" fill="#231f20" transform="matrix(1.1146666388 0 0 -1.1146666388 133.1444286866 204.15136297379)"/><path d="m0 0c-.09-.367-.182-.732-.287-1.093.105.361.197.726.287 1.093" fill="#231f20" transform="matrix(1.1146666388 0 0 -1.1146666388 133.72628467206 202.10260569168)"/><path d="m0 0c.174.263.182.38.338.651.094.16.166.329.254.492-.21-.391-.425-.779-.665-1.155z" fill="#231f20" transform="matrix(1.1146666388 0 0 -1.1146666388 130.83483941101 209.33121884429)"/><path d="m0 0c-.047-.464-.094-.928-.152-1.392.058.465.105.928.152 1.392" fill="#231f20" transform="matrix(1.1146666388 0 0 -1.1146666388 134.78856197883 195.61190185394)"/><path d="m0 0c-.046-.608-.097-1.222-.154-1.838.057.616.108 1.23.154 1.838" fill="#231f20" transform="matrix(1.1146666388 0 0 -1.1146666388 135.01706863979 193.03925125159)"/><path d="m0 0c-.137-.326-.279-.648-.432-.966.153.318.295.64.432.966" fill="#231f20" transform="matrix(1.1146666388 0 0 -1.1146666388 132.408748705 206.14104292405)"/><path d="m0 0c-.058-.418-.116-.836-.184-1.253.068.417.126.834.184 1.253" fill="#231f20" transform="matrix(1.1146666388 0 0 -1.1146666388 134.52550065208 197.83789113163)"/><path d="m0 0-.002-.001c.254-1.839.414-3.459.445-5.397-.031 1.938-.189 3.558-.443 5.398" fill="#231f20" transform="matrix(1.1146666388 0 0 -1.1146666388 134.41626332147 185.81844076545)"/><path d="m0 0c1.207-4.668.715-9.739-.461-14.057-1.27-3.414-1.832-4.254-2.748-5.219l-.004-.236 1.172.196.12.02c.24.376.455.764.665 1.155.135.249.265.499.388.753.153.318.295.64.432.966.105.25.209.5.305.752.128.341.244.686.355 1.033.08.248.162.494.235.745.105.361.197.726.287 1.093.059.242.123.483.177.726.085.385.157.773.228 1.16.042.229.089.457.128.687.068.417.126.835.184 1.253.027.201.059.403.084.605.058.464.105.928.152 1.392.016.156.035.313.051.47.057.616.108 1.23.154 1.838l-.096 1.08c-.031 1.938-.191 3.558-.445 5.397l-1.744-.602c.221-.348.127-.856.381-1.207" fill="#231f20" transform="matrix(1.1146666388 0 0 -1.1146666388 132.89474335951 187.83598738167)"/><path d="m0 0-1.172-.196v-.001z" fill="#231f20" transform="matrix(1.1146666388 0 0 -1.1146666388 130.61970874972 209.36688817674)"/><path d="m0 0c-.08.301.211 1.925-.072 3.946.18-1.285.092-2.661.023-3.572-.031-.427-.09-.819-.095-1.011l.02.004z" fill="#231f20" transform="matrix(1.1146666388 0 0 -1.1146666388 124.46897823682 210.03011482682)"/><path d="m0 0-.124-.633 1.273.334-.006.775c.244 4.263-.28 8.563-1.856 12.524-.797 2.004-2.047 3.828-2.877 5.831l-2.125-.221c.539-.827 1.112-1.747 1.524-2.667l.541-.985c.539-.762.666-1.244 1.301-2.604.785-1.814 1.871-5.519 2.277-8.408.283-2.021-.008-3.645.072-3.946" fill="#231f20" transform="matrix(1.1146666388 0 0 -1.1146666388 124.46897823682 210.03011482682)"/><path d="m0 0-.02-.004c-.001-.036-.002-.07.002-.089z" fill="#231f20" transform="matrix(1.1146666388 0 0 -1.1146666388 124.33075957361 210.73569880918)"/><path d="m0 0-.018-.093c.001-.005 0-.016 0-.019l1.291.436v.01z" fill="#231f20" transform="matrix(1.1146666388 0 0 -1.1146666388 124.33075957361 210.73569880918)"/><path d="m0 0c.244 4.263-.278 8.563-1.854 12.524-.799 2.003-2.049 3.828-2.877 5.831h-.002c.83-2.003 2.08-3.827 2.877-5.831 1.576-3.961 2.1-8.261 1.856-12.524" fill="#231f20" transform="matrix(1.1146666388 0 0 -1.1146666388 125.74304220497 209.49953350675)"/><path d="m0 0c-.02-.564-.078-1.194-.218-1.788-.071-.308-.159-.608-.29-.88-.063-.048-.125-.067-.186-.069-.119-.005-.233.058-.345.109-.057.025-.112.046-.168.054l.006-.775.142.038 1.643.423 1.412.237.004.236c.127.401.244.805.353 1.212 1.594 5.939 1.385 12.654-.131 18.51l-.982-.064c.887-1.715.889-2.61 1.363-5.875.09-1.017.135-2.038.137-3.057.008-3.058-.362-6.104-1.041-9.027-.141-.603-.295-1.201-.459-1.794.002.003-.001.004 0 .006 0-.001-.001-.003-.002-.005.02.067-.013.095-.07.107-.09.015-.239-.009-.369-.01-.131-.001-.245.022-.26.136-.072.574.326 2.247.306 2.826-.039 1.264-.009 2.528-.041 3.792-.001.075-.003.161-.008.258-.068 1.438-.44 5.061-.812 6.698-.168.738-.635 2.277-.953 2.938-.117.245-.821 2.306-.937 2.308l-.983-.159c1.27-1.904 1.873-4.224 2.443-6.478.446-3.27.7-6.604.446-9.907" fill="#009f95" transform="matrix(1.1146666388 0 0 -1.1146666388 127.088444838 206.63038157848)"/><path d="m0 0 1.641.422 1.414.237v.001l-1.412-.237z" fill="#009f95" transform="matrix(1.1146666388 0 0 -1.1146666388 125.90801286751 210.32104281955)"/><path d="m0 0 .142.048-.142-.038z" fill="#009f95" transform="matrix(1.1146666388 0 0 -1.1146666388 125.7497302048 210.37454681821)"/><path d="m0 0c-.109-.407-.226-.811-.353-1.212.127.401.244.805.355 1.212 1.592 5.939 1.383 12.654-.131 18.51h-.002c1.516-5.856 1.725-12.571.131-18.51" fill="#009f95" transform="matrix(1.1146666388 0 0 -1.1146666388 129.7112554391 207.97132554496)"/><path d="m0 0c-.074.574.324 2.247.306 2.825-.041 1.265-.011 2.529-.043 3.793.032-1.264.002-2.528.041-3.792.02-.579-.378-2.252-.306-2.826.015-.114.129-.137.26-.136-.131-.001-.243.022-.258.136" fill="#009f95" transform="matrix(1.1146666388 0 0 -1.1146666388 127.69147948959 209.16736284839)"/><path d="m0 0c.057-.012.09-.04.07-.107.001.002.002.004.002.005.014.062-.016.091-.072.102" fill="#009f95" transform="matrix(1.1146666388 0 0 -1.1146666388 128.39037547212 209.30781084488)"/><path d="m0 0c.372-1.637.744-5.26.812-6.698-.068 1.438-.438 5.061-.81 6.698-.17.738-.637 2.277-.953 2.938-.119.245-.824 2.308-.938 2.308h-.001c.116-.002.82-2.063.937-2.308.318-.661.785-2.2.953-2.938" fill="#009f95" transform="matrix(1.1146666388 0 0 -1.1146666388 127.07061017178 194.03687789332)"/><path d="m0 0c.131.272.219.572.29.88-.072-.309-.161-.609-.292-.88-.063-.047-.123-.067-.184-.069.061.002.123.021.186.069" fill="#009f95" transform="matrix(1.1146666388 0 0 -1.1146666388 126.52219418549 209.6043121708)"/></svg>