<svg height="339.116499" viewBox="0 0 200 230" width="294.883912" xmlns="http://www.w3.org/2000/svg" xmlns:xlink="http://www.w3.org/1999/xlink"><clipPath id="a"><path d="m0 229.68h230v-229.68h-230z"/></clipPath><g clip-path="url(#a)" transform="matrix(1.00547997486 0 0 -1.00547997486 -15.63044894257 230.46942198826)"><path d="m0 0c.113-.476-.295 0-.431 0-.678.793-1.087 1.428-1.79 1.972-.615.477-1.193 1.089-1.864 1.487-.77.458-1.689.733-2.496 1.131-.532.263-1.03.511-1.594.693-.915.296-1.973.463-2.929.335-.938-.126-3.272-.408-3.645-1.436-.303-.836.717-1.47 1.406-1.655.714-.191 2.899-.498 2.899-1.597 0-.227.045-.295-.045-.477-1.065-.249-2.334-.316-3.421-.657-1.632-.724-3.92-1.381-4.033-3.534.363-.385.997-.566 1.472-.385 1.292 0 2.425 1.019 3.648.929-.883-1.926-3.15-2.537-4.259-4.305-.227-.566-.476-1.268 0-1.79 1.336-1.132 1.903.59 3.058 1.36 1.385.924 1.868 2.766 3.525 3.306.77.25 1.657.075 1.152-.858-.471-.868-1.606-1.283-2.158-2.111-1-1.505.48-2.184 1.72-1.342 1.071.728 1.575 2.316 2.988 2.523.432-.068 1.088.543 1.473.34.793-1.065.272-2.56.046-3.716-1.7-6.026-3.421-12.189-5.868-17.988-1.382-4.758-3.671-9.402-5.392-13.978 2.424 9.968 6.909 19.937 9.696 30.131.158 1.632.929 2.9 1.02 4.509-.498.294-.929-.25-1.405-.386-1.013-.769-1.621-2.098-2.771-2.708-.636-.336-1.782-.04-2.295.458-.292.283-.535 2.015-.076 2.211-1.488-.636-2.083-2.451-3.778-2.797-1.353-.277-1.954.762-1.945 1.979.012 1.597 1.485 2.406 2.55 3.372-.657-.076-1.786-.324-2.361.02-.712.426-.932 1.334-.775 2.104.268 1.306 1.486 2.367 2.638 2.928 1.594.776 3.115.844 4.812.944-.732.871-2.266.526-3.158.993-1.13.593-1.505 1.191-1.207 2.101.482 1.468 2.924 2.109 4.257 2.276 1.88.236 3.83-.124 5.514-.99 2.333-1.2 4.26-3.149 5.822-5.392" fill="#68cff6" transform="translate(120.9697 217.176)"/><path d="m0 0c.456-.198.891-.465 1.298-.82.964-.839 1.858-1.79 2.381-2.972.374-.847 1.252-3.338-.123-3.342-.17-.001-1.093.075-1.133.17.748-1.813.986-4.362.351-6.332.045-.521-.339-.998-.43-1.518-.635-.969-1.927-2.677-3.123-1.278-.708.828-.669 2.278-.836 3.298-.166 1.018-.29 2.043-.477 3.058-.087.482-.282 2.57-.729 2.805 1.292-.679 1.461-1.665 1.846-3.149.305-1.177.282-2.836.461-4.01.087-.565.479-1.528 1.15-1.296.832.288 1.369 2.068 1.55 2.791.26 1.682-.006 3.3-.377 4.94-.099.433-.162.853-.43 1.214-.301.403-1.189.715-1.235 1.28-.096 1.15 2.594-1.337 3.002-1.146.525.247.11 2.019-.05 2.393-.658 1.545-2.47 2.804-4.057 3.235-1.166.317-2.871.305-4.047.067-.704-.143-1.384-.379-2.068-.59-.397-.121-1.738-.716-2.112-.518-.339.181-.611.046-.928.317 0 .114.022.204.068.272 2.219.204 4.202 1.445 6.423 1.595 1.275.087 2.514.017 3.625-.464" fill="#68cff6" transform="translate(131.5166 217.7634)"/><path d="m0 0c.422-.136.808-.414 1.099-.855.73-1.106 1.147-2.571.904-3.903-.093-.51-.416-1.068-1.023-1.056-.314.006-.515.242-.659.493-.323.566-.436 1.241-.48 1.877-.049.723-.901.712-1.43.674-.639-.045-1.897-1.79-2.009-.469-.052.617.345 1.586.69 2.093.675.991 1.898 1.473 2.908 1.146" fill="#c1eafb" transform="translate(126.2402 210.6028)"/><path d="m0 0c.397 0 .817-.062 1.11-.317.199-.172.313-.413.332-.697.052-.749.19-1.299.435-1.727.159-.278.277-.315.362-.317h.011c.495 0 .637.64.66.769.212 1.157-.106 2.52-.851 3.647-.234.354-.541.595-.914.715-.867.279-1.922-.145-2.512-1.01-.331-.487-.672-1.374-.63-1.866.006-.073.016-.123.024-.156.146.059.411.261.578.389.36.273.7.531 1.034.555.115.009.237.015.361.015m2.251-3.758h-.025c-.384.008-.706.233-.956.669-.3.525-.467 1.169-.527 2.027-.008.128-.054.183-.092.216-.215.187-.778.147-.963.133-.125-.009-.459-.263-.659-.414-.461-.351-.894-.682-1.306-.498-.367.162-.405.614-.417.763-.064.746.399 1.805.749 2.319.76 1.116 2.148 1.655 3.304 1.282.522-.168.965-.512 1.284-.995.841-1.274 1.199-2.828.957-4.159-.15-.818-.678-1.343-1.349-1.343" fill="#6bcff5" transform="translate(124.9883 208.1965)"/><path d="m0 0c-4.373-10.059-9.516-19.71-13.865-29.747 1.134 4.056 3.058 7.907 4.622 11.85 2.401 6.139 5.822 11.757 7.929 18.01.363.77 1.292 1.654 1.813 1.677-.068-.635-.317-1.201-.499-1.79" fill="#6bcff5" transform="translate(120.9697 204.1951)"/><path d="m0 0c.054-.308.089-.619.131-.912.05-.35.104-1.324.608-1.286.74.056.748 1.942.618 2.376-.069.237-.114.484-.191.718-.053.158-.308.458-.294.617.033.355.491-.15.561-.287.111-.221.193-.476.25-.717.124-.53.112-1.097.142-1.638.022-.365-.058-1.188-.354-1.457-.248-.227-.634-.521-.974-.431-.657.137-1.088.725-1.314 1.292-.521 1.087.43 2.628-.816 3.375.024.272.34.34.544.227.719-.399.959-1.128 1.089-1.877" fill="#68cff6" transform="translate(123.3047 203.949)"/><path d="m0 0c-1.722-3.987-2.944-8.269-5.051-12.189 2.989 8.36 6.23 16.607 9.402 24.967.226.022.498.181.543.43-1.381-4.486-3.262-8.79-4.894-13.208" fill="#68cff6" transform="translate(112.3828 191.3039)"/><path d="m0 0c.657-1.427.906-3.013 1.201-4.508.203-1.246.272-2.832-.113-3.919-.748.203-.34.973-.477 1.563-.479 1.471-1.186 2.934-2.078 4.203-.714 1.017-1.952 1.812-1.688 3.184.168.871 1.139 1.282 1.909.769.498-.25.793-.975 1.246-1.292" fill="#68cff6" transform="translate(102.6416 188.1545)"/><path d="m0 0c.091-2.174-2.267-3.036-3.648-4.078-1.133-.883-2.469-1.45-3.195-2.719-.515-.401-.617.645-.598.903.041.595.237 1.18.505 1.707.555 1.091 1.394 1.991 2.194 2.905.76.867 1.558 1.655 2.727 1.912.445.098 1.985.075 2.015-.63" fill="#68cff6" transform="translate(119.8828 188.3586)"/><path d="m0 0c.726-1.585 1.065-3.33 1.156-5.006-.036.667-.511 1.467-.817 2.044-.338.637-.727 1.245-1.114 1.853-.182.285-1.968 2.728-.737 2.714.812-.008 1.239-1.005 1.512-1.605" fill="#c1eafb" transform="translate(102.2559 187.3391)"/><path d="m0 0c.095-.004.187-.02.274-.048.423-.138.5-.731.229-1.076-.297-.376-.92-.757-1.315-1.026-1.564-1.065-3.375-2.152-4.623-3.376.268.722.618 1.454 1.02 2.111.689 1.123 1.736 2.198 2.87 2.879.403.243 1.017.559 1.545.536" fill="#c1eafb" transform="translate(118.5195 188.2434)"/><path d="m0 0c3.437-.081 6.906-.242 10.354-.639.698-.08 2.649-.067 4.247-.686 1.598-.62 2.845-1.873 3.308-2.409 1.459-1.688 2.533-3.808 3.795-5.555 3.852-6.773 7.408-13.933 10.376-21.205 3.761-8.45 6.684-17.4 10.285-25.986.159.023.656.521 1.066.555.68.057 1.593-.328 1.775-.396 1.314-.59 1.85-.68 2.959-1.7.68-.883 1.496-1.834 1.814-2.922 1.223-.839 2.605-1.767 3.579-2.787 1.178-1.2 2.107-2.9 2.559-4.621.103-.59.369-2.085.196-3.568-.172-1.484-.784-2.957-1.079-3.5.816-1.202 2.379-.613 3.217-1.836.793-1.132.951-2.685 2.446-3.375.999-.329 1.541-.114 2.335.226 1.155.351 2.265 1.835 2.672 3.194.273.838.227 1.926-.384 2.606-.476.86-1.699.951-2.605 1.269-.159-.068-.34-.114-.499-.182-.136.521.226.907.612 1.088 1.88.928 3.851.852 5.324-.092 1.472-.943 2.492-2.99 2.492-4.893.18-1.019-.069-2.152-.204-3.171-.34-1.36-.997-2.81-1.744-3.851-.975-1.609-2.333-2.788-3.92-3.853-.623-.396-2.071-1.294-3.61-1.789-1.539-.496-3.169-.589-3.926-.454-2.346.423-4.695 1.963-5.355 3.421-1.064 2.38-1.291 5.075-.543 7.568-1.224-1.201-2.923-.658-4.237-.974-2.311-6.344-6.774-11.895-10.173-17.83-5.075-6.888-9.922-13.798-15.495-20.3-1.678-1.811-3.467-3.737-4.94-5.641 2.56 1.427 5.074 2.244 7.929 3.105.679.308 1.452.274 2.172.415.958.187 1.087.254.936 1.204-.252 1.597-.261 3.248.408 4.757.56 1.264 1.747 2.097 2.73.745 1.034 1.544 1.202 3.498 3.112 4.387.702.271.838-.454 1.126-.896 1.308.717 2.203 2.029 3.544 2.08 1.805.069 1.175-1.701.812-2.86.521.838 1.133.769 2.175 1.314 1.563.418 2.333.61 3.375-.068.181-.118.228-.8.206-.989.073.625 3.518.278 3.947.175.468-.113 2.97-.969 2.486-1.792-.159-.385-.634-.566-.77-.861 1.2-.136 2.446-.952 3.33-1.586.226-.317.475-.634.203-1.042-.86-.703-1.857-.611-2.763-.906 1.2-.793 2.356-1.768 3.308-2.899.656-.883 1.149-2.378 1.089-3.476-.015-.274-.072-.971-.307-1.157-.28-.222-.801-.124-1.027.098.048-.224.685-4.147-.255-3.108.544-.602.365-2.544.445-3.336.132-1.289.136-2.614-.263-3.861-.318-.994-1.179-1.756-1.901-.764-.2.276-.881 1.6-.817 1.918-.363-1.834-.589-3.714-1.473-5.345-.317-.476-.521-.703-1.019-.974-.273-.137-.783-.295-1.043.068-.26.361-.023 2.084-.159 2.809-.702-1.677-1.835-2.855-3.149-4.169-.34-.498-1.053-.448-1.269-.114-.214.334-.112 1.972.115 2.878-.88-.745-2.881-2.843-4.242-2.329-.75.284-.661 2.2.004 2.601-1.427-.861-2.741-1.859-4.394-2.289-.675-.045-.957-.072-1.473.658-.136.408.204.77.318 1.133-.998-.272-2.487-.601-3.088.288-.09.681-.018 1.184.436 1.614-1.087-.226-3.291-.101-3.533.544-.244.646.067 1.065.361 1.473-1.291.158-2.582.226-3.625 1.201-.181.181-.181.351-.181.702.091 1.042 1.246.952 1.858 1.428-.997.225-1.586.883-1.745 1.902.068.612.771.951 1.246 1.088-.498.362-1.223.656-1.291 1.359-2.106-.476-4.214-.951-6.253-1.7-.407-.769-.657-1.653-1.2-2.332-1.315-1.518-3.603-1.888-5.324-1.359-.582.225-.838.385-1.2.701-2.154-4.463-4.374-8.903-6.481-13.367 1.699-.566 3.512-.996 5.008-1.903.724-.384 1.517-1.291 1.427-2.174.067-.476-.16-1.11-.544-1.518-1.115-.743-2.306-.834-3.516-.722-.444.041-1.541.128-2.572.409-.897.243-1.741.686-2.069.675-.544.068-1.291-.567-1.811-.974-.037-.029 3.396-2.822 3.669-3.139.163.142.339.338.492.513.568-.707 1.837-1.171 2.648-1.55.491-.228.991-.439 1.496-.635.365-.14 1.048-.543 1.436-.513.884.068 1.519.953 1.859 1.745.429 1.019.067 2.174.814 3.103.937 1.165 2.504 1.126 3.383-.045.888-1.184.772-2.931.469-4.303-.521-2.064-2.356-3.309-4.304-3.762-.408-.181-1.02.067-1.36-.318.34-.408.34-1.064 0-1.427-.611-.77-1.517-1.744-2.334-2.287-.271.045-.317.339-.543.498-.589.815-.929 1.745-1.405 2.605-.228.413-1.021.793-1.415 1.03-.5.3-1.021.558-1.549.802-.526.24-1.059.468-1.59.696-.465.199-.945.204-1.402.388.1.184.238.354.34.543-1.138.418-2.25.991-3.313 1.568-.579.314-1.15.641-1.732.948-.327.172-1.278.847-1.641.776-1.155-.226-2.446.204-3.466-.158-1.616-.428-3.224-.881-4.827-1.35-.804-.236-4.391-1.501-4.435-1.401.011-.059.211-.716.208-.716-.378-.075-.77-.114-.944-.151-.718-.151-.983-.231-1.65-.393-.617-.15-1.274-.315-1.866-.555-.529-.213-.982-.565-1.393-.955-.415-.392-.783-.831-1.191-1.232-.146-.143-1.087-1.093-1.301-.973-.696.388-1.348.886-1.936 1.422-.143.129-1.614 1.3-1.566 1.387.127.229 1.486 1.704 1.259 1.857-.567.386-1.156 1.089-1.677 1.587-.554.742-1.439 2.866-.328 4.916.736 1.359 2.209 1.643 2.888 1.643 1.225 0 2.243-1.269 2.334-1.824-.022-1.243-2.173-3.045-.22-3.919.71-.317 2.902.843 3.371 1.037.68.279 1.353.638 2.032.892.099-.154.174-.324.271-.48.48.602 3.034 1.716 3.448 1.923.203.101 1.07.67 1.271.593-1.325.505-3.967 1.049-5.144 2.098-.698.623-.87.997-.793 1.491.077.496.272.775.703 1.078.43.301 1.544.551 2.619 1.061 1.169.557 2.31 1.217 2.546 1.725.658 2.446.533 4.519.453 7.385-.159 1.858-.136 3.375-.453 5.166-1.019.294-2.061.408-2.99 1.087-.21.21-.979.662-1.405 1.435-.448.812-.546 1.952-.43 2.44-2.356 2.197-4.939 4.1-7.726 5.369.525-.24.231-1.975-.052-2.287-.355-.39-.844-.382-1.32-.288-.187.037-1.122.215-1.233.354.544-.68.679-1.585.385-2.332-.272-.363-.68-.363-1.042-.499.045-.475.498-1.065.158-1.632-.385-.724-1.336-.498-1.903-.226.041-.481.354-1.917-.127-2.286-.309-.237-.814.082-1.097.235-.216.117-2.203 1.505-2.083 1.733-.272-.521-.272-1.382-1.042-1.518-1.065 0-1.541 1.224-2.017 1.95-.294-.84 0-2.154-.702-2.765-.612-.045-.544.906-1.133 1.088.068-.295.09-.817-.159-1.088-.77-.294-1.246.657-1.699 1.132-.203-.521 0-1.472-.816-1.675-1.359.385-1.834 1.767-2.559 2.831-.137-.295 0-.906-.046-1.269-.249-.475-.114-1.177-.77-1.449-1.314 0-1.518 1.449-2.22 2.265-.182.589-.589 1.088-.703 1.7-.226-.204-.339-.52-.272-.884-.304-1.219-1.273-1.561-1.919-.466-.26.439-1.023 2.075-.754 2.595-.502-.969-1.86-2.554-2.447-.795-.095.285-.128.537-.14.831-.007.173-.139.948-.064 1.052-.469-.643-1.284-1.44-2.138-1.505-.636-.05-.856.621-.961 1.162-.168.884-.08 1.778.199 2.631-1.112-1.027-1.651.03-1.6 1.139.054 1.193.388 1.945.728 3.029.363 1.156 1.28 2.334 1.869 3.376-.738-.469-1.58-.061-1.338.85.196.734.673 1.495 1.101 2.114.505.731 1.153 1.363 1.772 1.999.208.214 1.615 1.935 1.818 1.902-.492.079-1.791-.178-2.134.336-.637.953 3.196 2.919 3.176 2.926-.543.204-1.449.657-1.449 1.338.577 1.381 1.925 1.472 3.511 2.038 1.291.227 2.742.407 4.033.476 2.288 0 3.987.09 6.253-.476-.612.884-1.722 1.45-1.427 2.492.713.85 2.526.453 3.873-.226.997-.748 1.7-1.7 2.493-2.719-.048.061.244 1.141.257 1.289.043.476.061.944.193 1.406.121.423.305 1.007.748 1.199.641.279.877-.262 1.135-.722.317-2.197.476-4.123.725-6.253-.064.545 1.511 2.34 1.983 2.521 1.75.678-.058-3.481-.192-3.947.074.257 1.726.926 2.026.937 2.097.079-.042-2.879-.283-3.657.612.589 1.45.907 2.221.771.634-.499.181-1.11 0-1.7-.703-1.17-1.496-1.7-2.402-2.334.77-.114 1.699.258 2.719-.385.642-.415.249-.68 0-.974-.476-.408-.974-.747-1.518-1.019.408-.204.77-.68.974-1.088 3.806-1.495 7.114-4.032 10.399-6.638.204-.136.453.045.657 0-.475 4.69-.657 9.425-1.042 14.07.181 2.832-.045 5.686-.045 8.495-.408 6.457-1.11 12.914-1.587 19.347-4.191 2.991-8.518 6.118-12.618 9.244-6.82 5.846-13.798 11.872-19.892 18.215-1.354 1.383-3.684 4.714-5.073 7.227-.394.713-1.086 2.076-1.443 3.457-.363 1.41-.386 2.837-.329 3.61.031.402.215 1.51.816 2.911.561 1.306 1.223 2.864 2.016 4.342.901 1.68 1.936 3.256 2.586 4.236 2.854 4.213 5.844 8.269 9.198 12.12 2.65 2.651 6.948 6.97 7.997 7.816 1.05.845 2.107 2.024 3.58 2.945 1.473.922 4.673 1.79 7.68 2.402 4.576.679 9.152 1.517 13.752 1.676.294 1.677 1.812 3.194 3.466 3.693 2.991.748 6.23-.861 7.567-3.693" fill="#231f20" transform="translate(109.8233 170.0984)"/><path d="m0 0c.578-.43 1.677-1.291 2.016-2.289-2.764-.181-5.528.182-8.269-.112.045.838.68 1.699 1.359 2.174.68.477 1.405.691 2.334.726.929.033 1.983-.069 2.56-.499" fill="#c0c7bf" transform="translate(106.1758 172.5452)"/><path d="m0 0c-1.042-.341-2.628-.092-3.761-.159-2.651.385-4.856.846-7.212 2.31-.287.235-.944.099-.982.983-.15 1.095-.318 1.828-.369 2.153-.439 2.78-.322 5.679-.726 8.622-.793 12.484-1.042 24.945-1.857 37.427 1.97-1.404 4.168-2.242 6.207-3.488 1.292-4.849 2.605-9.607 4.236-14.364 1.088-2.469 1.903-5.006 3.263-7.385.711-.917 2.717-3.316 5.256-3.898 2.799-.64 6.161.606 7.181 1.225 2.969.996 5.484 3.466 7.727 5.436 5.731 4.69 11.056 10.445 15.496 15.768.022 0 .045-.023.068-.045.928 2.425-.113 5.324-1.813 7.228-.725.815-1.472.973-2.333 1.585-.362.068-.86.318-1.2 0 .113-.43.679-.317.882-.612-.815-.838-1.201-.793-2.605-1.677-1.611-.804-5.019-2.74-8.535-4.06-2.815-1.056-5.82-1.596-7.129-1.753-2.941-.354-5.903-.144-7.082.059-.917 0-3.079.296-5.127.946-1.798.569-3.508 1.49-4.207 1.66-4.531 2.265-8.994 4.214-13.117 6.955-6.638 4.599-13.095 9.516-19.076 14.907-4.214 4.033-8.881 7.657-12.393 12.121-.34.32-1.503 1.727-2.506 3.393-1.269 2.11-2.418 4.636-2.82 5.895-.394 1.233-.303 2.244-.287 2.637.013.343.077 1.315.682 2.59.64 1.352 1.241 3.043 2.187 4.687 1.082 1.88 2.513 3.699 3.175 4.881 2.65 3.647 5.527 7.272 8.541 11.033 3.353 3.783 6.321 6.502 10.217 10.013 2.583 1.859 5.472 2.091 8.926 2.77 4.611.725 8.383 1.308 12.597 1.581 5.369.136 10.739-.023 16.199-.273 1.645-.228 5.068-.474 7.397-.723.526-.056 1.422-.151 2.269-.489.377-.149 1.413-.439 2.262-1.314.743-.767 2.2-3.057 3.467-5.26.933-1.626 1.764-3.205 2.129-4.09.039-.098.074-.187.102-.267 1.336-2.424 6.414-14.054 7.844-17.283 1.723-3.89 9.066-22.194 10.868-27.503.489-1.442.576-1.661 1.021-3.122.106-.473.754-1.888.868-2.53.012-.247 0-.528-.302-1.133-.273-.838-.756-1.473-.227-2.304.431-.362.884-.045 1.246.159.046-.838-.883-2.038.159-2.764.249-.181.589-.226.544-.589-.295-2.922-.023-6.163.498-9.04.318-.113.521-1.2.363-1.472-2.425-5.392-5.505-10.625-8.474-15.655-2.853-3.875-5.663-7.68-8.654-11.577-2.582-2.968-4.916-6.163-7.431-9.198-1.472-1.337-2.718-3.126-4.191-4.554-.612-.838-1.359-1.675-1.632-2.718-.407-.091-.975-.212-1.654-.627-1.065-.77-1.879-1.14-2.536-2.092-1.859-1.79-4.305-2.447-6.639-3.421-2.175-.452-4.123-1.337-6.456-1.54z" fill="#c0c7bf" transform="translate(107.0596 37.5422)"/><path d="m0 0c-2.107-4.509-5.369-8.542-7.885-12.892-1.631-2.197-3.148-4.304-4.78-6.569-3.149-3.942-5.936-8.202-9.945-11.419 3.465 4.214 6.706 8.382 9.832 12.778 4.214 5.936 8.45 11.849 12.392 18.034.136.023.273.203.386.068" fill="#231f20" transform="translate(120.3135 160.1531)"/><path d="m0 0c-1.5-.647-2.876-1.81-3.962-3.227-2.061-2.719-3.474-7.028-2.822-9.784.304-1.291 1.318-2.508 2.261-2.866.916-.348 2.346-.034 3.281.529 4.257 2.838 6.679 8.095 5.758 12.994l4.004 3.066-.869 1.146-3.469-3.191c-.247.497-.588.775-.899 1.024l2.386 3.964-1.239.713-2.138-4.244c-.278.093-.841.103-1.275.072l.222 4.73-1.456-.031z" fill="#231f20" transform="translate(140.586 112.0427)"/><path d="m0 0c1.236.207 2.642-.024 3.159-1.301 1.075-2.662.156-5.557-.526-7.28-.793-1.77-3.117-5.954-6.516-6.237-.755.042-1.406.406-1.881.986-.438.537-.818 1.327-.897 2.029-.217 1.952.226 3.935.957 5.587.778 1.76 1.766 3.388 3.164 4.729.743.713 2.168 1.425 2.54 1.487" fill="#fff" transform="translate(141.0508 111.5466)"/><path d="m0 0c.396-1.221-.687-3.445-1.241-4.168-.535-.697-1.414-1.642-2.353-1.706-2.332-.158-1.275 2.957-.77 4.118s1.695 2.635 3.132 2.576c.707-.029 1.079-.35 1.232-.82" fill="#2057af" transform="translate(142.1328 105.093)"/><path d="m0 0c.126-.274.183-.63.156-1.027-.057-.861-.52-1.828-1.084-2.478-.608-.702-2.128-2.206-2.657-.504-.173.56.007 1.197.183 1.732.309.944.983 1.895 1.792 2.485.772.564 1.344.36 1.61-.208" fill="#2057af" transform="translate(141.4082 104.6819)"/><path d="m0 0c-.975-.771-2.333-1.653-2.537-2.764 1.767 1.315 3.768 2.733 5.709 3.036 1.939.302 2.628.068 3.625-.703.612-.52 1.201-1.064 1.428-1.834-3.875-3.671-7.59-7.5-11.646-10.286-.182.453.012.722-.271 1.631-.284.91-.658 1.586-1.133 2.175.996 0 1.598.334 2.718.59 1.654.589 3.398 1.109 4.554 2.514-2.356-.907-6.25-1.887-7.272-1.97-1.023-.085-2.711-.066-3.603.384-.891.451-1.45.634-1.948 1.518-.498.883-.794 1.807-.498 3.059.295 1.252 1.845 2.821 4.576 3.737 2.731.917 4.53.137 6.298-1.087" fill="#f68a7a" transform="translate(124.2774 75.6477)"/><path d="m0 0c.113-1.111.521-2.425.227-3.377 0-.453.384-.656.543-.113.134.461 1.381 3.145 1.924 3.036.407-.084-.278-1.771-.348-1.979-.131-.389-.754-2.736-1.1-2.846.997.317 2.152 1.653 3.534 1.947.159-.203-.068-.361 0-.588-.634-1.517-1.903-2.854-2.56-4.191.133.269 1.534.822 1.856 1.018.499.306 1.217.915 1.836.685.047-.723-.837-1.257-1.177-1.818-.884-.837-1.903-1.562-2.878-2.264-.045-.136.068-.182.091-.272.711.547 1.781.563 2.64.549.459-.007 1.317.036 1.62-.345-.426-.309-.953-.595-1.443-.817-.253-.114-1.698-.45-1.774-.656-.068-.181.09-.339.271-.272.408.045.816.045 1.246.114.476-.181.952-.657.929-1.201-.385-.928-1.473-1.178-2.175-1.722-.022-.114.023-.204.113-.273.861 0 1.405.703 2.175.046.386-.317-.022-.747-.226-.973-.793-1.02-2.22-.952-3.149-1.519.679-.316 1.359 0 2.061.046 1.157-.675 1.548-2.379-.143-2.224-.202.019-2.48.553-2.462.705-.046-.384.385-.498.657-.702.317-.68.725-1.473.476-2.242-.431-.273-.816-.182-1.36-.046-.815.317-1.382.996-2.061 1.518-.295-.182.068-.612.226-.861.499-.521 1.133-1.177 1.835-1.427.272-.294.386-.657.544-.974-.023-.227-.091-.566-.363-.544-1.812.611-3.353 2.084-4.848 3.217-.209-.971.013-1.953.025-2.93.006-.514.074-1.661-.719-1.31-.436.191-.843.797-1.056 1.21-.668 1.294-.556 2.852-1.195 4.164-.611.248-1.223-.161-1.722-.499-.113-.273.114-.771.43-.431.25.203.726.022 1.021.068 0-1.019.588-1.812.453-2.673-.748-.793-.25-2.108-.771-2.765-.34.488-.69.969-1.052 1.44-.275.36-.641 1.02-1.042 1.21-.225-.417.348-.962.513-1.307.113-.239.094-1.565.177-1.615-.964.578-1.362 1.685-1.665 2.706-.052.18-.301 1.255-.636 1.096-.281-.135.024-.8.079-.985.182-.618.374-1.216.435-1.862.055-.595-.141-1.059-.388-1.612-.858.551-1.4 1.441-1.863 2.323-.174.332-.53 2.197-1.063 1.602-.658-.734-.168-2.712-.292-3.608-.158-.135-.226-.317-.43-.158-1.223 1.315-1.971 3.036-2.401 4.667-.493-.417-.664-1.095-.855-1.676-.11-.332-.231-.843-.676-.68-.514.188-.718 1.411-.839 1.88-.365 1.414-.307 2.906-.462 4.351.452.407 1.223.385 1.586.861-.499-1.156-1.134-2.561-.272-3.739.43-.453 1.019-.884 1.744-.815.952.204 1.722 1.109 2.447 1.676-.34-.634-.453-1.291-.068-1.858.204-.203.476-.249.725-.362 1.314.521 2.333 1.517 3.353 2.491.045-.407-.204-1.018.113-1.404.453.137.476.748.612 1.179-.159.407.159.815.045 1.2-.941.025-1.607-.728-2.234-1.323-.315-.299-1.797-1.732-2.112-.994-.126.296.187.81.292 1.088.175.469.382.955.203 1.455-1.225-.421-2.213-2.192-3.553-2.162-1.65.039-1.06 2.124-.717 3.019.244.634.611 1.189 1.015 1.732.105.141 1.277 1.47 1.238 1.535-.068.113-.068.498-.271.34-.884-.681-1.292-1.428-2.016-2.13-.557-.255-2.018-1.208-2.552-.515-.311.402-.136 1.254-.004 1.701.451 1.521 1.161 2.835 2.057 4.138-.453.181-.703-.588-1.087-.861-.816-1.268-1.36-2.446-1.722-3.919.068-.793-.227-2.356 1.019-2.333-.657-1.383.294-3.286-1.019-4.509-.274-.219-.314-.426-.625-.206-.207.147-.257.511-.309.735-.116.505-.136 1.019-.18 1.533-.132 1.535-.084 3.132.343 4.621-.113.249-.317 0-.43-.113-.884-1.518-.159-3.354-1.088-4.736-.181-.325-1.095-1.233-1.53-.964-.327.204-.259.959-.249 1.275.027.883.202 1.78.42 2.636.544 2.129 2.651 3.737 3.738 5.709.046.158-.022.271-.158.384-1.042-.679-1.904-1.903-2.764-2.899-.678-.769-1.226-1.739-1.706-2.642-.118-.223-.321-1.242-.707-1.123-.502.157.172 2.253.287 2.572.391 1.074.886 2.41 1.514 3.367.861 1.315 2.084 2.311 2.991 3.602-1.091.057-1.94-.757-2.586-1.488-.216-.244-.604-.5-.79-.031-.158.395.315.767.502 1.053.317.481.662.942 1.023 1.393.55.687 1.065 1.529 1.717 2.121.204.185 2.095 1.823 2.217 1.779-.86.317-1.834.362-2.514.611 2.288 1.677 5.256 1.926 7.68 3.308-1.181.241-2.389.04-3.57-.101-.907-.108-1.86-.323-2.666.292-.187.143-.31.058-.117.291.293.353 1.329.462 1.783.637.802.309 1.704.453 2.552.565 1.734.231 3.531.307 5.281.332 1.585.023 3.194-.431 4.78-.815.363-.069 1.167-.318.317.316-.217.162-.655.678-.873.873-.328.295-.663.589-1.005.869-.243.2-.912.685-.727 1.03.363.673 2.211-.253 2.605-.415.754-.502 1.404-1.146 2.001-1.824.39-.443.924-1.764 1.571-1.764.248 1.137.299 2.34.519 3.492.05.263.06.787.435.799.677.02.601-3.266.753-3.806" fill="#ef2c30" transform="translate(75.8403 67.5608)"/><path d="m0 0c.102-.116.147-.283.11-.517-.113-.714-.82-1.462-1.143-2.097-.357-.7-.719-1.625-.682-2.428.386.476.567 1.02.861 1.518.907.928 2.108 1.675 3.217 2.333.997 0 1.881.702 2.833.431.227-.092.362-.386.317-.59-1.133-1.405-3.172-2.174-3.919-3.76 1.222.748 2.604 1.676 3.76 2.672 1.225.502 2.583.685 3.882.448.622-.114 2.356-.352 1.792-1.198-.348-.52-1.551-.679-2.092-.902-.698-.287-1.538-.734-2.019-1.338 1.292.091 2.878 1.043 4.351.817.775-.199 1.495-.448 2.21-.801.599-.298 1.254-.477.453-.986-.829-.529-1.912-.2-2.708-.888 1.744-1.042 3.284-2.468 4.303-4.28.364-.772.635-1.565.59-2.516-.953.635-1.949 1.586-2.674 2.13.363-1.155 1.541-1.948 1.858-3.104.045-.589.363-1.269.158-1.79-.182-.022-.361-.226-.475.045-.679.567-1.201 1.948-2.129 2.56.249-2.038 2.559-3.307 2.129-5.596-.035-.996.028-1.987-.042-2.984-.032-.446.012-2.009-.415-2.306-.553-.388-.936.974-1.018 1.469-.2 1.212-.401 2.562-.972 3.663-.294-.816.068-1.495 0-2.401-.317-1.631-.657-3.286-1.2-4.826-.431-.816-.918-2.402-1.428-2.289-.51.114.747 4.871.385 7.273-.407-.907-.431-2.402-.815-3.625-1.156-1.812-3.524-5.466-4.124-5.279-.599.188.454 2.743.657 4.01.113.635-.34.522-.498.069-.725-1.178-1.926-1.563-2.877-2.561-.567-.272-1.133-1.03-1.745-.656-.612.373 1.11 2.197.974 3.488.498.204 1.03.803 1.19.963.34.34.956 1.4 1.036 1.444.004-.482-.289-.821.138-1.207 1.146-1.035 2.193 1.609 2.53 2.266-.141-.274.048-.912.296-1.076.441-.292.605.022.874.389.785 1.072.942 2.378 1.231 3.632-.058-.254.812-1.545 1.046-1.61.765-.217 1.098 2.13.971 2.698 0 .476-.04.878-.272 1.519-.232.639-.703 1.246-1.043 1.97-.249-.204-.249.476-.499.091.817-1.608 1.316-3.558.772-5.324-.386.725-.703 1.586-1.406 2.061-.135-1.427-.52-2.99-1.313-4.282-.045.544-.386 1.225-.702 1.474-.543-1.021-.975-2.222-1.858-3.105-.25.975.272 1.61-.114 2.606-.906-.817-1.699-2.379-2.718-3.489-.136.952.113 1.948-.272 2.787-.906-1.134-2.016-1.949-3.193-2.674.134.861.134 1.835.158 2.719-1.112-.431-2.085-1.087-3.421-1.133-.182.272-.024.657.158.928.656.998 1.631 1.791 2.175 2.877-.158.16-.272-.067-.431-.067-.679-.86-1.631-1.449-2.175-2.265-.319-.479-.559-1.616-.168-2.101.69-.851 2.455.222 3.203.514-.529-.207-.712-2.005-.432-2.402.603-.856 2.555.902 3.038 1.474.25.295.499.611.772.884.113-1.088-.499-1.995.113-2.946-1.654-1.064-3.604-2.265-5.597-2.877-.656-.136-.656.26-.453.657.611.703 1.427 1.133 1.699 1.994-1.359-.68-2.899-1.586-4.508-1.246-.339.25-.045.634 0 .929.34.792 1.405.928 1.405 1.789-1.27-.295-2.651-.679-3.965-.475-.227.09-.431.407-.544.634.521 1.132 2.061.838 2.765 1.812-1.995-.612-4.056-.567-5.914.317-.16.318-.181.658.045.929 1.382.793 2.946.341 4.35.93-.589.723-1.133.18-1.947.362-.727.131-4.059 1.379-1.967 2.197.882.345 1.856-.378 2.668.318-.43.385-.793.158-1.359.316-.589.295-1.382.385-1.7 1.043.612.589 1.473.747 2.244.815-.227.499 1.336.363.272.658-.748.113-1.677.362-2.244.815.476 1.699 2.04 2.469 2.833 3.965-.861 1.971-.522 4.417.34 6.366.113.227.429.521.633.318.16.317.431-.16.386-.228.483-1.346-.107-3.148.725-4.321.044 1.483.482 3.526 1.246 4.819.495.839.473 1.861 1.137 2.67.536.654 1.215.821 1.052-.212-.262-1.658-1.259-3.426-.863-5.138.555 1.526.835 3.25 1.755 4.628.605.912 1.41 1.728 2.347 2.299.478.292 1.301.447 1.61.094" fill="#ef2c30" transform="translate(148.8965 60.3684)"/><path d="m0 0c1.07-.531 6.03-3.84 7.37-4.988.287-.247.575-.501.867-.765-.884-.747-1.632-1.608-2.13-2.673-2.175 2.152-4.848 4.123-7.771 5.211-1.065.385 1.156.996.77 2.083-.271.363-.543.817-1.042.861.454.182.477 1.247 1.042.59.309-.063.605-.175.894-.319" fill="#c0c7bf" transform="translate(83.3716 53.3078)"/><path d="m0 0c-.839-1.2-2.312-1.88-2.335-3.375-.203-.407-.339-.951.16-1.245-.635.112-6.276-1.428-7.952-2.629-.907.725-1.768 1.926-1.405 3.103 1.337 1.042 3.081 1.451 4.622 2.175 2.221.817 4.598 1.473 6.91 1.971" fill="#c0c7bf" transform="translate(137.3955 48.6418)"/><path d="m0 0c-.585 1.013-.324 2.643-.17 2.889.485.772 1.344 1.345 1.987 1.438.228.033.958.374.845-.589.17-1.529.394-3.152.504-3.804.12-.708.212-1.424.222-2.177-.805.091-2.604.886-3.388 2.243" fill="#f57dc4" transform="translate(90.668 42.1858)"/><path d="m0 0c.317-.566.068-1.178.204-1.79-.068-.408-.386.045-.544-.068-.77.521-1.405 1.065-2.175 1.631-.045.793.136 1.609-.158 2.357 1.019-.657 1.698-1.495 2.673-2.13" fill="#ef2c30" transform="translate(75.6817 42.9787)"/><path d="m0 0c.249-1.224.702-2.605 1.699-3.422.204-.068.386-.181.589-.34-.068-.678-.656-1.132-1.133-1.516-.475-.386-1.529-.907-2.56-.93-1.031-.022-2.469.182-2.876.816-.408.634-.397 1.642-.069 2.242.329.601 2.402 2.742 4.35 3.15" fill="#f57dc4" transform="translate(124.9346 44.4514)"/><path d="m0 0c.12-.021.738.285 1.066.236 1.564-.204 3.019-1.489 4.741-1.535 1.472-.159 2.9.499 4.395.657 1.532.185 2.814-1.018 4.254-1.25.249-.04.958-.016 1.685.151.726.166 1.469.476 1.787.554.861-.498 1.881-.747 2.718-1.246-2.537-.384-5.391-.814-7.567-2.173-1.449-1.042-3.534-1.179-4.893-.726-1.54.408-1.925 2.492-3.648 2.561-1.608-.115-2.537-1.971-4.123-1.949-1.11-.022-2.175.855-2.56 1.405-.385.548-.588.611-.657 1.155 1.042.611 1.352.718 2.236 1.669z" fill="#b91a94" transform="translate(94.7276 26.0627)"/><path d="m0 0c-.006.056.003.311.07.524.122.382.475 1.699.486 2.917.232 2.97-.125 5.94-.238 8.91 2.968-1.541 6.82-2.312 10.376-2.289 3.513.363 7.182.634 10.286 2.289 1.314.52 2.673.928 3.851 1.743-.044-.131-.083-.656-.045-1.186.102-.389.378-.906.378-.906s-4.455-7.362-6.245-12.044c-.25-.529-.137-.981-.855-1.096-1.661-.452-3.223-.898-4.583-.49-.497.083-1.946.969-3.157.755-.641-.113-1.21-.349-1.926-.415-.992-.093-1.879.004-2.302.074-1.006.167-2.004.451-2.988.662-1.023.22-2.031.589-3.016.439 0 0-.078-.042-.092.113" fill="#f57dc4" transform="translate(94.8242 26.7092)"/><path d="m0 0c1.314-.046 3.187-.219 3.534-1.246.348-1.027-.18-1.835-.815-2.447-1.201-1.133-2.923-1.541-4.463-1.473 0-1.023-.189-2.011-.303-3.012-.04-.348-.175-.76-.175-.76s-1.255.007-1.68.027c-.429.019-1.007-.396-1.127.186-.275 1.33-.035 2.835.041 4.178.024.423.194 3.947.525 4.002 1.495.25 3.149.59 4.463.545" fill="#231f20" transform="translate(106.1758 35.2082)"/><path d="m0 0c.287-.801-.475-1.851-1.246-2.289-.77-.438-2.56-1.11-3.737-.747-.131-.628-.179-1.287-.271-1.951-.084-.607-.047-.911-.115-1.81-.688.03-1.291.09-1.971-.045-.068 2.402.113 4.825.453 7.227 1.427.18 2.606.521 4.123.543.996 0 2.478-.127 2.764-.928" fill="#b91a94" transform="translate(109.0527 33.7356)"/><path d="m0 0c-.021-.04-.044-.082-.073-.127-.419-.635-1.437-.762-2.115-.867-.649-.102-1.258-.53-1.935-.444-.203.026-.326 1.636-.381 1.836-.006.023 5.18 1.01 4.504-.398" fill="#231f20" transform="translate(107.9951 32.9827)"/><path d="m0 0c-.256-.269-1.197-.37-1.407-.409-.421-.08-.817-.262-1.24-.328-.114.244-.133.509-.185.77-.016.082 1.517.258 1.634.271.22.026 1.186.175 1.258-.117.016-.071-.007-.131-.06-.187" fill="#f57dc4" transform="translate(107.0781 32.8557)"/><path d="m0 0c2.197-1.133 4.78-.77 6.797.544 1.291.566 2.65.793 4.01 1.155-.114-.385-.522-.679-.658-.997-1.381-1.449-2.966-2.651-4.78-3.579-1.971-1.043-4.644-1.495-6.728-.658-.793.092-1.382.476-2.084.885-1.066.906-2.108 1.449-2.764 2.763 1.427.182 2.537 2.288 4.122 1.405.658-.612 1.428-1.042 2.085-1.518" fill="#f57dc4" transform="translate(101.6221 20.5725)"/><path d="m0 0c.522.133 1.159.025 1.522-.396.542-.627.209-1.079-.171-1.662-.274-.418-.633-.829-.758-1.323-.302-1.203.921-2.19 2.011-2.346.883.069 1.812.204 2.718.589.845.36 1.667.753 2.493 1.148-.155-.074 1.11-2.825 1.2-3.096-2.809-.59-5.754-1.768-7.227-4.351-.657.839-1.699 1.337-2.288 2.108.408.612 1.155 1.313.702 2.017-1.495 1.381-2.832 3.285-2.333 5.323.209.855 1.162 1.742 2.131 1.989" fill="#fff" transform="translate(81.2339 20.1145)"/><path d="m0 0c-2.877-1.019-6.049-1.684-8.699-2.81-.364.794-.862 1.7-.929 2.606 1.722.77 3.761 1.766 5.663 2.606 1.201-.998 2.493-1.949 3.965-2.402" fill="#c0c7bf" transform="translate(99.4922 16.3811)"/><path d="m0 0c.061-.192.104-.375.128-.531.222-1.448-.45-2.907-1.425-3.938-1.178-1.246-2.922-1.155-4.554-1.586-.204-.134-.249-.316-.226-.543.204-.249.499-.475.612-.747-.681-.703-1.337-1.292-2.085-1.904-.173.244-.49 1.488-1.208 2.47-1.455 1.382-3.89 2.316-5.136 2.967.612.771 1.631 1.814 2.606 2.38.43-.466 1.171-.778 2.492-1.496 1.133-.566 1.973-.718 2.243-.884 1.111-.362 2.108.249 2.81 1.179.8 1.057.526 3.488 1.787 4.11 1.004.494 1.674-.585 1.956-1.477" fill="#fff" transform="translate(125.5742 16.5676)"/><path d="m0 0c1.246-.975 2.425-1.88 3.693-2.649-.649-.817-1.457-1.315-2.235-2.138-1.715.974-3.7 2.077-5.196 2.952 1.246.476 2.492 1.224 3.738 1.835" fill="#c0c7bf" transform="translate(109.166 18.0119)"/><path d="m0 0c2.509-1.115 10.223-4.647 18.308-3.532 8.086 1.115 13.29 3.81 19.703 8.364 1.58-1.022 3.531-2.602 3.438-6.505-2.695-3.253-6.319-7.435-7.992-8.829-.651 1.115-1.952 3.903-6.785 2.044l-1.115-.464c-2.231 1.301-4.192 2.841-8.271 1.394-2.882-1.023-4.461-3.439-4.461-6.32.093-1.115 1.301-4.089 6.32-4.275.372-.65 1.208-2.416 1.208-3.718-2.416-1.208-3.439-2.416-7.342-2.416-2.138.093-5.391 1.487-7.621 7.064-2.231 5.576-4.182 11.523-5.39 17.193" fill="#6b4133" transform="translate(99.6279 84.7815)"/><path d="m0 0c-2.974-1.58-4.601-2.323-6.591-3.071-2.814-1.056-5.82-1.596-7.129-1.753-2.941-.354-5.903-.144-7.082.059-.917 0-3.079.296-5.127.946-1.798.569-3.508 1.49-4.207 1.66-4.531 2.264-8.994 4.214-13.117 6.955-6.638 4.599-13.095 9.516-19.076 14.907-4.214 4.033-8.881 7.657-12.393 12.121-.34.32-1.503 1.727-2.506 3.393-1.269 2.11-2.418 4.636-2.82 5.895 5.689-1.245 10.764-2.265 20.987-1.707 10.223.557 15.799-.186 24.164 1.673 6.936-7.306 28.247-33.765 31.223-37.142.468-.544 1.165-1.241 1.583-1.66.418-.418.883-.557 1.859-.418.976.14 3.207 1.488 4.833.837-.233-.279-.883-.697-1.069-.837-.186-.139-2.974-1.626-3.532-1.858" fill="#e7e6e6" transform="translate(132.5733 87.6623)"/><path d="m0 0c-.023.022-.046.045-.068.045-4.441-5.323-9.765-11.078-15.496-15.768-2.244-1.97-4.758-4.44-7.727-5.436-1.021-.619-4.383-1.865-7.182-1.225-2.539.582-4.545 2.981-5.256 3.898-1.359 2.379-2.174 4.916-3.262 7.385-1.631 4.757-2.945 9.515-4.237 14.364-2.039 1.246-4.236 2.084-6.207 3.488.816-12.482 1.065-24.943 1.858-37.427.404-2.943.287-5.842.725-8.622.051-.325.219-1.058.37-2.153.038-.884.695-.748.982-.983 2.355-1.464 4.561-1.925 7.212-2.31 1.133.067 2.719-.182 3.761.159l.544.045c2.333.203 4.281 1.088 6.456 1.54 1.365.57 2.769 1.032 4.072 1.676.924.456 21.828 35.974 23.455 41.324" fill="#e7e6e6" transform="translate(141.5869 82.1272)"/><g fill="#231f20"><path d="m0 0c.085-.02.17-.043.254-.072.551-.187 1.193-.873 1.414-1.396.25-.59.173-1.257-.014-1.852-.403-1.277-1.332-2.299-2.267-3.22-.53-.522-1.07-1.07-1.651-1.534-.34-.272-.861-.34-1.019-.77 5.188.068 10.399.589 15.587.544-4.736-1.066-9.72-.793-14.568-1.088-4.35-.045-9.991-.431-14.408.113-2.221.068-4.146.046-6.367.431 3.67.158 7.137-.249 10.671-.272-.995 1.603-2.539 2.79-2.904 4.922-.194 1.134-.155 2.058.557 3.058.645.904 1.905 1.218 2.936.765 1.553-.683 3.33-2.583 4.033-4.508-.038.102.814.866.918.973.308.317.62.63.942.933.642.603 1.269 1.196 2.208 1.782.587.366 1.159.735 1.812.99.592.231 1.243.34 1.866.201" transform="translate(81.2529 136.3733)"/><path d="m0 0c5.528-7.182 11.441-14.069 16.675-21.567-7.771 8.744-14.84 18.056-22.611 26.733-.453 1.042-1.314 2.016-1.676 3.103 2.854-2.469 5.097-5.55 7.612-8.269" transform="translate(112.2246 113.1653)"/><path d="m0 0c.386 1.912 1.012 3.686 1.849 5.46.929 1.54 1.631 3.148 2.514 4.666.34-.067.364.77.658.544-1.323-3.568-2.996-7.001-4.315-10.567l-.231-.556-.642-.151.151.528z" transform="translate(107.3936 39.0481)"/><path d="m0 0c.282-1.243.357-3.327 1.761-3.952 1.471-.656 3.396-1.019 5.005-.544 1.744.023 3.919 1.269 4.984 1.134-1.722-.884-3.489-1.7-5.438-1.994-2.291-.347-7.935-.248-7.413 3.321.074.507.529 2.007 1.101 2.035" transform="translate(103.8281 60.5237)"/><path d="m0 0c-.15 4.809 2.035 9.979 3.187 14.171-.989-4.792-1.877-9.408-3.187-14.171" transform="translate(104.6094 38.2873)"/><path d="m0 0c-.203-1.744.068-3.738-.702-5.278-.272 2.242-.001 4.555.204 6.797.22 2.385.431 3.874.884 5.776-.136-2.582-.182-4.825-.386-7.295" transform="translate(102.5957 43.6809)"/><path d="m0 0c.224-2.111.362-4.26.476-6.298-.09-.091-.294-.158-.43-.068-.386 2.061-.975 4.124-.93 6.162 0 1.45.046 2.945.227 4.395.386-1.131.499-2.688.657-4.191" transform="translate(99.6055 45.8557)"/><path d="m0 0c-.929-2.334-2.38-4.418-3.738-6.615.271 2.084 1.351 3.632 2.492 5.754.747.898.974 1.472 1.586 1.858.475.68-.068-.657-.34-.997" transform="translate(114.2188 45.4709)"/><path d="m0 0c.038-1.812-.975-4.804-2.832-6.366.725 1.359 1.375 2.74 1.744 3.987.37 1.246.22 2.499-.271 4.553-.491 2.055-1.722 4.486-3.262 6.208.34.476.68-.227 1.019-.34 2.174-2.174 3.564-6.23 3.602-8.042" transform="translate(148.2695 85.0051)"/></g><path d="m0 0c1.314.316 3.014-.227 4.237.974-.748-2.493-.521-5.188.543-7.568.66-1.458 3.009-2.998 5.356-3.421.757-.135 2.386-.042 3.926.454 1.539.496 2.986 1.393 3.609 1.79 1.587 1.064 2.945 2.243 3.921 3.852.746 1.041 1.403 2.491 1.743 3.851.136 1.019.385 2.152.204 3.172 0 1.902-1.019 3.949-2.492 4.893-1.473.943-3.443 1.019-5.323.091-.387-.181-.748-.567-.613-1.088.16.068.34.114.499.182.907-.318 2.129-.409 2.605-1.269.611-.68.657-1.767.385-2.606-.408-1.359-1.518-2.843-2.672-3.194-.794-.34-1.337-.555-2.335-.226-1.495.69-1.654 2.243-2.447 3.375-.837 1.223-2.401.634-3.216 1.836.295.543.906 2.016 1.079 3.5s-.094 2.978-.196 3.568c-.453 1.721-1.381 3.421-2.56 4.621-.974 1.02-2.356 1.948-3.579 2.787-.318 1.088-1.134 2.039-1.814 2.922-1.109 1.02-1.645 1.11-2.959 1.7-.181.068-1.094.453-1.775.396-.41-.034-.906-.532-1.065-.555-.815-.499-1.291-1.111-1.291-1.111l.203-.743c.489-1.442.576-1.661 1.02-3.122.107-.473.755-1.888.868-2.53.013-.247 0-.529-.301-1.134-.273-.837-.756-1.472-.227-2.303.431-.362.884-.045 1.246.159.046-.838-.884-2.038.158-2.764.249-.181.589-.226.544-.589-.295-2.922-.022-6.163.498-9.04 0 0 .513-.61.39-1.106.743 0 1.245.12 1.831.246" fill="#ce6611" transform="translate(157.1279 89.5813)"/><path d="m0 0c.707-1.538.795-3.105.755-4.734-.033-1.298-.148-2.637-.098-4.034.318-.158.273.476.431.703.113 2.152.725 4.327.204 6.434.249.204.544-.113.815-.181 3.014-2.197 4.803-5.528 4.147-9.243-.23-2.913-2.196-5.233-4.621-6.821-.216-.142-1.134-.679-1.429-.452 2.629 2.696 3.898 6.321 4.894 9.787-1.835-3.24-3.058-7.771-6.842-9.787-.294-.136-.476 0-.771-.113-.61 1.11-.815 2.537-.86 3.76-.137 1.768-.227 3.942.045 5.755.589.997 1.744 2.062 1.586 3.307-.997-.589-1.315-2.083-2.447-2.605-.567.137-.317 1.088-.227 1.518-.09.929.566 1.677.727 2.56-.727.431-.975-1.155-1.905-1.246.114 1.359.612 2.492 1.224 3.716.317.958.657 1.903.567 2.763-.226-.587-.658-1.064-.884-1.63-.363 1.335-.975 2.673-1.36 4.077.204.408.863.428 1.564.34.907-.113 3.76-1.744 4.485-3.874" fill="#f6c410" transform="translate(158.8721 108.9963)"/><path d="m0 0c.315-.038 1.789.12 3.059-1.585.95-1.278 1.472-4.645.114-7.873-1.116-2.65-3.659-4.634-4.683-5.286-2.281-1.456-5.014-1.885-6.238-1.783-.989.144-2.9.196-4.41 2.009-.756.706-1.053 2.137-1.186 2.387-.226 1.586-.317 3.805.272 5.391 1.222.408 2.402 1.383 2.991 2.56 1.246 0 1.835-1.359 2.515-2.128.088-.169.564-1.489 1.45-2.074 1.002-.662 2.458-.579 3.115-.453.343.066 1.989.797 2.661 1.699 1.165 1.562 1.592 3.872 1.02 5.132-.397.872-.68 1.098-1.631 1.563-.635.203-.838.022-1.519.158.592.198 1.547.396 2.47.283" fill="#f6c410" transform="translate(175.7959 97.4079)"/><path d="m0 0c-.316-.929-1.02-1.88-1.97-2.333-.204-.068-.135.227-.317.227.68.701 1.404 1.516 2.016 2.333.181.067.205-.114.271-.227" fill="#f57dc4" transform="translate(164.9658 93.7043)"/><path d="m0 0c-.222.523-.864 1.209-1.415 1.396-.084.029-.168.053-.253.072-.623.139-1.274.031-1.867-.201-.652-.255-1.224-.623-1.812-.99-.939-.586-1.565-1.179-2.208-1.782-.322-.303-.633-.616-.941-.933-.104-.107-.956-.871-.919-.973-.702 1.925-2.48 3.825-4.032 4.508-1.032.453-2.291.139-2.936-.765-.712-.999-.751-1.923-.557-3.058.364-2.132 1.908-3.319 2.903-4.922l.748.045c2.379-.068 4.763.308 7.21.263l1.127-.036c.159.431.68.498 1.02.771.581.463 1.121 1.012 1.65 1.533.935.921 1.865 1.944 2.267 3.22.187.595.265 1.263.015 1.852" fill="#ee2049" transform="translate(82.9214 134.905)"/></g></svg>